# This file uses centimeters as units for non-parametric coordinates.

mtllib Loop.mtl
g default
v -0.998349 -0.000000 8.969188
v 0.998349 -0.000000 8.969188
v -0.998349 0.004991 -0.060355
v 0.998349 0.004991 -0.060355
v -0.998349 0.130014 -0.843803
v 0.998349 0.130014 -0.843803
v -0.998349 0.492578 -1.524884
v 0.998349 0.492578 -1.524884
v -0.998349 1.067682 -2.079323
v 0.998349 1.067682 -2.079323
v -0.998349 1.811568 -2.440968
v 0.998349 1.811568 -2.440968
v -0.998349 2.630465 -2.561513
v 0.998349 2.630465 -2.561513
v -1.034513 3.424352 -2.428916
v 0.962184 3.424352 -2.428916
v -1.135545 4.136984 -2.073330
v 0.861153 4.136984 -2.073330
v -1.282815 4.693330 -1.536941
v 0.713883 4.693330 -1.536941
v -1.536931 5.074648 -0.819743
v 0.459767 5.074648 -0.819743
v -1.849818 5.193420 -0.042253
v 0.146880 5.193420 -0.042253
v -2.204015 5.068398 0.717128
v -0.207317 5.068398 0.717128
v -2.462626 4.705833 1.428301
v -0.465929 4.705833 1.428301
v -2.641497 4.111977 1.982775
v -0.644799 4.111977 1.982775
v -2.774613 3.374345 2.338355
v -0.777917 3.374345 2.338355
v -2.891087 2.586702 2.452870
v -0.894391 2.586702 2.452870
v -2.961808 1.767805 2.320278
v -0.965112 1.767805 2.320278
v -2.982609 1.055177 1.958661
v -0.985913 1.055177 1.958661
v -2.996488 0.505078 1.428299
v -0.999799 0.505078 1.428299
v -3.000112 0.129961 0.693016
v -1.003410 0.129961 0.693016
v -3.000112 0.001768 -0.029088
v -1.003410 0.001768 -0.029088
v -3.000112 0.001768 -9.005877
v -1.003410 0.001768 -9.005877
vt 0.020842 0.652999
vt 0.021472 0.348512
vt 0.290402 0.349069
vt 0.289772 0.653555
vt 0.313736 0.349117
vt 0.313106 0.653603
vt 0.334021 0.349159
vt 0.333391 0.653645
vt 0.351586 0.348930
vt 0.350956 0.653417
vt 0.459923 0.655032
vt 0.460554 0.350546
vt 0.481915 0.349979
vt 0.481285 0.654465
vt 0.443686 0.653974
vt 0.444316 0.349488
vt 0.505067 0.352135
vt 0.504437 0.656622
vt 0.527682 0.353142
vt 0.527052 0.657628
vt 0.548862 0.353661
vt 0.548232 0.658147
vt 0.566831 0.353608
vt 0.566200 0.658095
vt 0.677182 0.657432
vt 0.677812 0.352946
vt 0.699710 0.353543
vt 0.699080 0.658030
vt 0.660041 0.657702
vt 0.660671 0.353216
vt 0.721217 0.353587
vt 0.720587 0.658074
vt 0.988576 0.354140
vt 0.987946 0.658628
vt 0.374794 0.348713
vt 0.374164 0.653199
vt 0.399183 0.348763
vt 0.398553 0.653250
vt 0.422828 0.348883
vt 0.422198 0.653369
vt 0.590253 0.353884
vt 0.589623 0.658371
vt 0.613713 0.353572
vt 0.613082 0.658059
vt 0.638102 0.353489
vt 0.637472 0.657976
vn 0.000000 1.000000 0.000553
vn 0.000000 1.000000 0.000553
vn 0.000000 0.999912 0.013248
vn 0.000000 0.999912 0.013248
vn 0.000000 0.948798 0.315885
vn 0.000000 0.948798 0.315885
vn 0.000000 0.796574 0.604541
vn 0.000000 0.796574 0.604541
vn 0.000000 0.570446 0.821335
vn 0.000000 0.570446 0.821335
vn 0.000000 0.294831 0.955549
vn 0.000000 0.294831 0.955549
vn 0.000000 -0.005196 0.999986
vn 0.000000 -0.009686 0.999953
vn 0.000000 -0.300293 0.953847
vn 0.000000 -0.315821 0.948819
vn 0.000000 -0.562201 0.827001
vn 0.000000 -0.587322 0.809354
vn 0.000000 -0.785010 0.619483
vn 0.000000 -0.814835 0.579693
vn 0.000000 -0.935707 0.352779
vn 0.000000 -0.959181 0.282794
vn 0.000000 -0.999301 0.037387
vn 0.000000 -0.999015 -0.044378
vn 0.000000 -0.959791 -0.280716
vn 0.000000 -0.936523 -0.350607
vn 0.000000 -0.814862 -0.579654
vn 0.000000 -0.779030 -0.626986
vn 0.000000 -0.579032 -0.815305
vn 0.000000 -0.548812 -0.835946
vn 0.000000 -0.308722 -0.951152
vn 0.000000 -0.280091 -0.959973
vn 0.000000 0.000187 -1.000000
vn 0.000000 0.022712 -0.999742
vn 0.000000 0.301953 -0.953323
vn 0.000000 0.312435 -0.949939
vn 0.000000 0.575242 -0.817983
vn 0.000000 0.578685 -0.815551
vn 0.000000 0.806588 -0.591114
vn 0.000000 0.808005 -0.589176
vn 0.000000 0.945153 -0.326627
vn 0.000000 0.945288 -0.326235
vn 0.000000 0.999913 -0.013216
vn 0.000000 0.999913 -0.013216
vn 0.000000 1.000000 0.000000
vn 0.000000 1.000000 0.000000
s 1
g pPlane1
usemtl lambert2SG
f 1/1/1 2/2/2 4/3/3 3/4/4
f 3/4/4 4/3/3 6/5/5 5/6/6
f 5/6/6 6/5/5 8/7/7 7/8/8
f 7/8/8 8/7/7 10/9/9 9/10/10
f 9/10/10 10/9/9 12/35/11 11/36/12
f 11/36/12 12/35/11 14/37/13 13/38/14
f 13/38/14 14/37/13 16/39/15 15/40/16
f 15/40/16 16/39/15 18/16/17 17/15/18
f 17/15/18 18/16/17 20/12/19 19/11/20
f 19/11/20 20/12/19 22/13/21 21/14/22
f 21/14/22 22/13/21 24/17/23 23/18/24
f 23/18/24 24/17/23 26/19/25 25/20/26
f 25/20/26 26/19/25 28/21/27 27/22/28
f 27/22/28 28/21/27 30/23/29 29/24/30
f 29/24/30 30/23/29 32/41/31 31/42/32
f 31/42/32 32/41/31 34/43/33 33/44/34
f 33/44/34 34/43/33 36/45/35 35/46/36
f 35/46/36 36/45/35 38/30/37 37/29/38
f 37/29/38 38/30/37 40/26/39 39/25/40
f 39/25/40 40/26/39 42/27/41 41/28/42
f 41/28/42 42/27/41 44/31/43 43/32/44
f 43/32/44 44/31/43 46/33/45 45/34/46
