# This file uses centimeters as units for non-parametric coordinates.

mtllib Wave.mtl
g default
v -0.808735 0.949899 12.822076
v 0.808732 0.949899 12.822076
v -0.808735 2.783683 10.395798
v 0.808732 2.783683 10.395798
v -0.808735 5.216645 4.639949
v 0.808732 5.216645 4.639949
v -0.808735 3.175078 -1.108698
v 0.808732 3.175078 -1.108698
v -0.808735 0.795864 -3.470286
v 0.808732 0.795864 -3.470286
v -0.808735 -0.881200 -6.703548
v 0.808732 -0.881200 -6.703548
v -0.808735 1.458471 -13.289663
v 0.808732 1.458471 -13.289663
vt 0.010115 0.661616
vt 0.009438 0.340452
vt 0.177166 0.340099
vt 0.177844 0.661262
vt 0.379104 0.339672
vt 0.379782 0.660836
vt 0.542578 0.339327
vt 0.543255 0.660491
vt 0.649367 0.339102
vt 0.650044 0.660266
vt 0.844725 0.338690
vt 0.845403 0.659854
vt 0.989759 0.338384
vt 0.990436 0.659547
vn 0.000000 0.797773 0.602958
vn 0.000000 0.797773 0.602958
vn 0.000000 0.886682 0.462379
vn 0.000000 0.886682 0.462379
vn 0.000000 0.999422 0.034001
vn 0.000000 0.999422 0.034001
vn 0.000000 0.878031 -0.478603
vn 0.000000 0.878031 -0.478603
vn 0.000000 0.809610 -0.586969
vn 0.000000 0.809610 -0.586969
vn 0.000000 0.997731 0.067326
vn 0.000000 0.997731 0.067326
vn 0.000000 0.942308 0.334748
vn 0.000000 0.942308 0.334748
s 1
g pPlane3
usemtl lambert4SG
f 1/1/1 2/2/2 4/3/3 3/4/4
f 3/4/4 4/3/3 6/5/5 5/6/6
f 5/6/6 6/5/5 8/7/7 7/8/8
f 7/8/8 8/7/7 10/9/9 9/10/10
f 9/10/10 10/9/9 12/11/11 11/12/12
f 11/12/12 12/11/11 14/13/13 13/14/14
