# This file uses centimeters as units for non-parametric coordinates.

v -10.548670 -27.283361 47.019890
v 8.461940 -27.283361 47.019890
v -11.128890 -21.532793 -12.931910
v 8.381668 -22.139893 -7.793383
v -33.955391 -21.606909 -0.220451
v 31.281694 -22.709394 -3.290012
v -30.019865 -23.310083 -8.981710
v 16.951973 -22.139893 -4.061951
v -33.955391 -21.606909 31.928251
v 31.281696 -22.709394 31.979288
v -20.797338 -24.840427 40.795547
v 12.934980 -24.840427 40.831352
vt 0.000000 0.000000
vt 1.000000 0.000000
vt 0.000000 1.000000
vt 1.000000 1.000000
vt 0.000000 0.800000
vt 1.000000 0.800000
vt 0.000000 0.923123
vt 1.000000 0.923123
vt 0.000000 0.140699
vt 1.000000 0.140699
vt 0.000000 0.066826
vt 1.000000 0.066826
vn -0.001979 0.995685 -0.092777
vn -0.000695 0.994676 -0.103049
vn -0.035518 0.983074 0.179732
vn -0.035518 0.983074 0.179732
vn 0.016456 0.999619 0.022168
vn 0.016558 0.999717 0.017079
vn 0.016773 0.999859 -0.000967
vn 0.015726 0.999835 -0.009089
vn 0.009538 0.954343 0.298561
vn 0.009089 0.953356 0.301713
vn -0.000249 0.930473 0.366361
vn -0.000249 0.930473 0.366361
s 1
f 7/7/1 8/8/2 4/4/3 3/3/4
f 9/9/5 10/10/6 6/6/7 5/5/8
f 5/5/8 6/6/7 8/8/2 7/7/1
f 11/11/9 12/12/10 10/10/6 9/9/5
f 1/1/11 2/2/12 12/12/10 11/11/9
