# This file uses centimeters as units for non-parametric coordinates.

mtllib Harish_wings_old.mtl
g skinCluster2Set tweakSet2
v -19.553299 127.865938 51.652874
v -17.899847 134.137401 51.652868
v 17.899847 134.137401 51.652874
v 19.553299 127.865938 51.652874
v -22.450536 126.242397 42.145182
v -17.899847 131.280396 40.725018
v 17.899847 131.280396 40.725018
v 22.450536 126.242397 42.145182
v -36.297837 148.941124 43.236805
v -33.837703 150.417239 43.236805
v -33.837703 148.941124 37.860025
v -37.906221 148.102290 38.502158
v 33.837709 150.417239 43.236805
v 36.297843 148.941124 43.236805
v 37.906227 148.102290 38.502158
v 33.837709 148.941124 37.860025
v -50.025678 171.019578 36.458869
v -48.814523 172.495699 36.458869
v -48.814520 171.019578 33.811797
v -50.727475 170.180750 34.155817
v 48.814523 172.495699 36.458875
v 50.025678 171.019578 36.458875
v 50.727475 170.180750 34.155817
v 48.814523 171.019578 33.811803
v -53.918862 194.785083 34.555555
v -53.240955 195.183635 34.555555
v -52.974331 195.272768 31.908483
v -54.887289 194.433940 32.252497
v 53.240955 195.183629 34.555567
v 53.918868 194.785077 34.555567
v 54.887295 194.433928 32.252509
v 52.974337 195.272756 31.908495
v -31.064454 129.795550 20.154755
v -30.698320 131.259087 19.083975
v -53.778327 158.565349 15.882238
v -51.136267 159.404183 15.240105
v -71.126318 190.568716 7.123967
v -70.639825 191.407544 6.779947
v -66.909623 214.184809 14.570610
v -66.423124 215.023637 14.226596
v 30.698320 131.259089 19.083975
v 31.064454 129.795553 20.154755
v 51.136273 159.404183 15.240105
v 53.778332 158.565349 15.882238
v 70.639831 191.407544 6.779953
v 71.126318 190.568716 7.123967
v 66.423130 215.023637 14.226607
v 66.909629 214.184809 14.570622
v -47.363493 137.965083 1.876668
v -46.997350 139.428619 0.805892
v -82.154381 176.282370 -13.966795
v -81.120998 177.121204 -14.608928
v -83.595175 200.698263 -12.756046
v -83.099520 201.537091 -13.100066
v -85.541660 231.430763 -7.942452
v -85.089648 232.269591 -8.286466
v 46.997350 139.428623 0.805892
v 47.363493 137.965088 1.876668
v 81.120992 177.121204 -14.608928
v 82.154387 176.282370 -13.966795
v 83.099520 201.537091 -13.100060
v 83.595175 200.698263 -12.756046
v 85.089648 232.269591 -8.286454
v 85.541666 231.430763 -7.942440
v 54.776627 194.612390 31.268252
v 53.674924 195.451218 31.314618
v 49.510825 171.183569 33.219964
v 34.528539 149.092466 37.269683
v 23.492403 130.622013 39.758192
v 23.858541 129.158477 40.828982
v 37.170601 148.253632 37.911815
v 49.997318 170.344741 33.563978
v -54.776621 194.612402 31.268240
v -49.997318 170.344741 33.563978
v -37.170595 148.253632 37.911815
v -23.858541 129.158477 40.828982
v -23.492403 130.622013 39.758192
v -34.528533 149.092466 37.269683
v -49.510822 171.183569 33.219958
v -53.674918 195.451230 31.314606
v -74.230921 149.212581 -20.018273
v -73.864782 150.676117 -21.089064
v -97.195995 186.979500 -34.119706
v -96.244359 187.818334 -34.761839
v -110.985899 227.743733 -38.176100
v -110.499406 228.582561 -38.520121
v -117.754769 260.949761 -25.548213
v -117.268264 261.788589 -25.892227
v 73.864776 150.676117 -21.089064
v 74.230909 149.212581 -20.018273
v 96.244359 187.818346 -34.761845
v 97.195983 186.979512 -34.119712
v 110.499382 228.582585 -38.520127
v 110.985863 227.743757 -38.176112
v 117.268229 261.788613 -25.892239
v 117.754722 260.949785 -25.548225
vt 0.828540 1.154399
vt 0.823454 1.185039
vt 0.809327 1.176887
vt 0.808899 1.146180
vt 0.744411 1.187531
vt 0.740594 1.171549
vt 0.663919 1.197814
vt 0.660752 1.189661
vt 0.742891 1.189695
vt 0.662478 1.200107
vt 0.591098 1.191205
vt 0.592660 1.183680
vt 0.688291 1.256273
vt 0.579327 1.279771
vt 0.589808 1.193613
vt 0.807271 1.190671
vt 0.786676 1.248127
vt 0.603665 1.355849
vt 0.535838 1.339182
vt 0.516985 1.241236
vt 0.812583 1.190573
vt 0.791778 1.248246
vt 0.742997 1.303373
vt 0.559806 1.419147
vt 0.444516 1.428888
vt 0.446747 1.316261
vt 0.678670 1.382313
vt 0.343950 1.413602
vt 0.908674 1.211861
vt 0.881862 1.227636
vt 0.867366 1.219673
vt 0.891224 1.199158
vt 0.922426 1.284621
vt 0.906614 1.289759
vt 0.948129 1.364575
vt 0.939564 1.366344
vt 0.989177 1.421304
vt 0.983696 1.426950
vt 0.938378 1.368889
vt 0.905535 1.292234
vt 0.982729 1.429790
vt 0.908895 1.481007
vt 0.875791 1.374023
vt 0.969776 1.518089
vt 0.876536 1.550230
vt 0.829316 1.497737
vt 0.871005 1.236640
vt 0.832128 1.284123
vt 0.941804 1.614146
vt 0.846369 1.680383
vt 0.795185 1.567913
vt 0.806608 1.349742
vt 0.868297 1.231995
vt 0.829362 1.279777
vt 0.923216 1.751726
vt 0.768755 1.444918
vt 0.305152 1.319063
vt 0.320089 1.317875
vt 0.296342 1.395257
vt 0.289098 1.394001
vt 0.314487 1.240802
vt 0.342867 1.238529
vt 0.295111 1.465942
vt 0.287732 1.467139
vt 0.286387 1.393708
vt 0.302539 1.318133
vt 0.310596 1.249707
vt 0.285003 1.468722
vt 0.199196 1.468398
vt 0.230510 1.363985
vt 0.252085 1.260768
vt 0.228446 1.535173
vt 0.133871 1.505587
vt 0.125682 1.435977
vt 0.192070 1.299415
vt 0.145571 1.595947
vt 0.030928 1.586683
vt 0.058561 1.471616
vt 0.106643 1.357623
vt 0.042015 1.689322
vt 0.305629 1.635807
vt 0.311331 1.622521
vt 0.383208 1.638553
vt 0.381672 1.645646
vt 0.225319 1.631391
vt 0.236386 1.604993
vt 0.311457 1.619814
vt 0.383969 1.635981
vt 0.447712 1.666838
vt 0.444949 1.673461
vt 0.246346 1.604343
vt 0.382004 1.574090
vt 0.487241 1.590348
vt 0.449415 1.664566
vt 0.279373 1.552331
vt 0.493521 1.511729
vt 0.549592 1.552745
vt 0.528299 1.648886
vt 0.340625 1.513641
vt 0.560090 1.471651
vt 0.675167 1.514415
vt 0.616631 1.610787
vt 0.429225 1.461212
vt 0.748371 1.586659
vt 0.678025 1.513783
vt 0.751229 1.586027
vt 0.296546 1.467627
vt 0.291345 1.471919
vt 0.288668 1.472306
vt 0.990919 1.422763
vt 0.988571 1.429766
vt 0.986445 1.431414
vt 0.355012 1.251720
vt 0.328287 1.319347
vt 0.300605 1.398686
vt 0.297213 1.466399
vt 0.683475 1.384361
vt 0.561729 1.422704
vt 0.748157 1.304375
vt 0.446143 1.431262
vt 0.235007 1.647093
vt 0.304290 1.643866
vt 0.383099 1.650893
vt 0.444889 1.675710
vt 0.764560 1.441713
vt 0.791028 1.567827
vt 0.803108 1.345757
vt 0.843467 1.679578
vt 0.972583 1.517428
vt 0.944721 1.613612
vt 0.926159 1.751206
vt 0.287379 1.472019
vt 0.229095 1.538159
vt 0.146326 1.598852
vt 0.043101 1.692146
vt 0.345337 1.416330
vn -0.429511 0.902966 0.013098
vn -0.429511 0.902967 0.013098
vn -0.429511 0.902967 0.013098
vn -0.429511 0.902967 0.013098
vn 0.429511 0.902966 0.013098
vn 0.429511 0.902967 0.013098
vn 0.429511 0.902966 0.013098
vn 0.429511 0.902966 0.013098
vn 0.875622 -0.482649 -0.018319
vn 0.875622 -0.482649 -0.018319
vn 0.875622 -0.482649 -0.018319
vn 0.875622 -0.482649 -0.018319
vn -0.875622 -0.482649 -0.018319
vn -0.875622 -0.482649 -0.018319
vn -0.875622 -0.482649 -0.018319
vn -0.875622 -0.482649 -0.018319
vn -0.301289 0.159970 0.940019
vn -0.301289 0.159970 0.940018
vn -0.301289 0.159970 0.940018
vn -0.301289 0.159970 0.940018
vn 0.745925 0.643686 -0.171066
vn 0.745925 0.643686 -0.171066
vn 0.745925 0.643686 -0.171066
vn 0.745925 0.643686 -0.171066
vn -0.266227 -0.472634 -0.840084
vn -0.266227 -0.472634 -0.840084
vn -0.266227 -0.472634 -0.840084
vn -0.266227 -0.472634 -0.840084
vn -0.795943 -0.501845 0.338564
vn -0.795943 -0.501845 0.338564
vn -0.795943 -0.501845 0.338564
vn -0.795943 -0.501845 0.338564
vn 0.301289 0.159970 0.940018
vn 0.301289 0.159970 0.940018
vn 0.301289 0.159970 0.940019
vn 0.301289 0.159970 0.940018
vn 0.795943 -0.501845 0.338564
vn 0.795943 -0.501846 0.338564
vn 0.795943 -0.501846 0.338564
vn 0.795943 -0.501846 0.338564
vn 0.266224 -0.472636 -0.840083
vn 0.266224 -0.472636 -0.840083
vn 0.266224 -0.472636 -0.840083
vn 0.266224 -0.472636 -0.840083
vn -0.745925 0.643687 -0.171066
vn -0.745925 0.643687 -0.171066
vn -0.745925 0.643687 -0.171066
vn -0.745925 0.643687 -0.171066
vn -0.156953 0.195180 0.968127
vn -0.156953 0.195180 0.968127
vn -0.156953 0.195180 0.968127
vn -0.156953 0.195180 0.968127
vn 0.833459 0.518592 -0.190807
vn 0.833459 0.518592 -0.190807
vn 0.833460 0.518592 -0.190807
vn 0.833459 0.518592 -0.190807
vn -0.370224 -0.213999 -0.903957
vn -0.370224 -0.213999 -0.903957
vn -0.370224 -0.213999 -0.903957
vn -0.370224 -0.213999 -0.903957
vn -0.834146 -0.408040 0.371084
vn -0.834146 -0.408040 0.371084
vn -0.834146 -0.408040 0.371084
vn -0.834146 -0.408040 0.371084
vn 0.156952 0.195180 0.968128
vn 0.156952 0.195180 0.968127
vn 0.156952 0.195180 0.968127
vn 0.156952 0.195180 0.968127
vn 0.834146 -0.408040 0.371084
vn 0.834146 -0.408040 0.371084
vn 0.834146 -0.408040 0.371084
vn 0.834146 -0.408040 0.371084
vn 0.370223 -0.213999 -0.903958
vn 0.370223 -0.213999 -0.903958
vn 0.370223 -0.213999 -0.903958
vn 0.370223 -0.213999 -0.903958
vn -0.833459 0.518592 -0.190807
vn -0.833459 0.518592 -0.190807
vn -0.833459 0.518592 -0.190807
vn -0.833459 0.518592 -0.190807
vn -0.068719 0.069246 0.995230
vn -0.068719 0.069246 0.995230
vn -0.068719 0.069246 0.995230
vn -0.068719 0.069246 0.995230
vn 0.983643 0.180114 0.002352
vn 0.983643 0.180114 0.002352
vn 0.983643 0.180114 0.002352
vn 0.983643 0.180114 0.002352
vn -0.704747 0.122115 -0.698870
vn -0.704747 0.122115 -0.698870
vn -0.704747 0.122115 -0.698870
vn -0.704747 0.122115 -0.698870
vn -0.921834 -0.125527 0.366696
vn -0.921833 -0.125527 0.366696
vn -0.921834 -0.125527 0.366696
vn -0.921834 -0.125527 0.366696
vn 0.068719 0.069246 0.995230
vn 0.068719 0.069246 0.995230
vn 0.068719 0.069246 0.995230
vn 0.068719 0.069246 0.995230
vn 0.921833 -0.125528 0.366696
vn 0.921833 -0.125528 0.366696
vn 0.921833 -0.125528 0.366696
vn 0.921833 -0.125528 0.366696
vn 0.704752 0.122112 -0.698866
vn 0.704752 0.122112 -0.698866
vn 0.704752 0.122112 -0.698866
vn 0.704752 0.122112 -0.698866
vn -0.983643 0.180114 0.002350
vn -0.983643 0.180114 0.002350
vn -0.983643 0.180114 0.002350
vn -0.983643 0.180114 0.002350
vn 0.143774 -0.447000 -0.882904
vn 0.143774 -0.447000 -0.882904
vn 0.143774 -0.447000 -0.882904
vn 0.143774 -0.447000 -0.882904
vn -0.591910 -0.515075 -0.619952
vn -0.591910 -0.515075 -0.619952
vn -0.591910 -0.515075 -0.619952
vn -0.591910 -0.515075 -0.619952
vn 0.237844 0.033734 -0.970717
vn 0.237844 0.033734 -0.970717
vn 0.237844 0.033734 -0.970717
vn 0.237844 0.033734 -0.970717
vn -0.504777 -0.439372 -0.743070
vn -0.504777 -0.439372 -0.743070
vn -0.504777 -0.439372 -0.743070
vn -0.504777 -0.439372 -0.743070
vn 0.655689 0.319298 -0.684194
vn 0.655689 0.319298 -0.684194
vn 0.655689 0.319298 -0.684194
vn 0.655689 0.319298 -0.684194
vn -0.846126 -0.198684 -0.494566
vn -0.846126 -0.198685 -0.494566
vn -0.846126 -0.198684 -0.494566
vn -0.846126 -0.198684 -0.494566
vn -0.429186 0.833122 0.348865
vn -0.429186 0.833122 0.348865
vn -0.429187 0.833122 0.348865
vn -0.429186 0.833122 0.348865
vn 0.653728 0.052895 -0.754879
vn 0.653728 0.052895 -0.754879
vn 0.653728 0.052895 -0.754879
vn 0.653728 0.052895 -0.754879
vn -0.143774 -0.447000 -0.882904
vn -0.143774 -0.447000 -0.882904
vn -0.143774 -0.447000 -0.882904
vn -0.143774 -0.447000 -0.882904
vn -0.237844 0.033734 -0.970717
vn -0.237844 0.033734 -0.970717
vn -0.237844 0.033734 -0.970717
vn -0.237844 0.033734 -0.970717
vn 0.591910 -0.515075 -0.619952
vn 0.591910 -0.515075 -0.619952
vn 0.591910 -0.515075 -0.619952
vn 0.591910 -0.515075 -0.619952
vn -0.655689 0.319299 -0.684193
vn -0.655689 0.319299 -0.684194
vn -0.655689 0.319299 -0.684193
vn -0.655689 0.319299 -0.684194
vn 0.504777 -0.439373 -0.743069
vn 0.504777 -0.439373 -0.743069
vn 0.504777 -0.439373 -0.743069
vn 0.504777 -0.439373 -0.743069
vn -0.653728 0.052895 -0.754879
vn -0.653728 0.052895 -0.754879
vn -0.653728 0.052895 -0.754879
vn -0.653728 0.052895 -0.754879
vn 0.429188 0.833122 0.348864
vn 0.429188 0.833122 0.348864
vn 0.429188 0.833122 0.348864
vn 0.429188 0.833122 0.348864
vn 0.846126 -0.198684 -0.494566
vn 0.846126 -0.198684 -0.494566
vn 0.846126 -0.198684 -0.494566
vn 0.846126 -0.198684 -0.494566
vn 0.446218 -0.598455 -0.665388
vn 0.446218 -0.598455 -0.665388
vn 0.446218 -0.598455 -0.665388
vn 0.446218 -0.598455 -0.665388
vn -0.748145 -0.516318 0.416767
vn -0.748145 -0.516318 0.416767
vn -0.748145 -0.516318 0.416767
vn -0.748145 -0.516318 0.416767
vn 0.745999 0.484621 -0.456758
vn 0.745999 0.484621 -0.456758
vn 0.745999 0.484621 -0.456758
vn 0.745999 0.484621 -0.456758
vn -0.808674 -0.195063 0.554975
vn -0.808674 -0.195063 0.554975
vn -0.808674 -0.195063 0.554975
vn -0.808674 -0.195063 0.554975
vn 0.800479 0.236959 -0.550531
vn 0.800479 0.236959 -0.550531
vn 0.800479 0.236959 -0.550531
vn 0.800479 0.236959 -0.550531
vn -0.829763 -0.089609 0.550875
vn -0.829763 -0.089609 0.550875
vn -0.829763 -0.089609 0.550875
vn -0.829763 -0.089609 0.550875
vn -0.405637 0.531800 0.743403
vn -0.405637 0.531800 0.743403
vn -0.405637 0.531800 0.743403
vn -0.405637 0.531800 0.743403
vn 0.829686 0.090280 -0.550881
vn 0.829687 0.090280 -0.550881
vn 0.829687 0.090280 -0.550881
vn 0.829687 0.090280 -0.550881
vn -0.446218 -0.598455 -0.665388
vn -0.446218 -0.598455 -0.665388
vn -0.446218 -0.598455 -0.665388
vn -0.446218 -0.598455 -0.665388
vn -0.745999 0.484621 -0.456758
vn -0.745999 0.484621 -0.456758
vn -0.745999 0.484621 -0.456758
vn -0.745999 0.484621 -0.456758
vn 0.748145 -0.516318 0.416766
vn 0.748145 -0.516318 0.416766
vn 0.748145 -0.516318 0.416766
vn 0.748145 -0.516318 0.416766
vn -0.800479 0.236959 -0.550530
vn -0.800479 0.236959 -0.550530
vn -0.800479 0.236959 -0.550531
vn -0.800479 0.236959 -0.550530
vn 0.808674 -0.195063 0.554975
vn 0.808674 -0.195063 0.554975
vn 0.808674 -0.195063 0.554975
vn 0.808674 -0.195063 0.554975
vn -0.829687 0.090280 -0.550881
vn -0.829687 0.090280 -0.550881
vn -0.829687 0.090280 -0.550881
vn -0.829687 0.090280 -0.550881
vn 0.405638 0.531800 0.743402
vn 0.405638 0.531800 0.743402
vn 0.405638 0.531800 0.743402
vn 0.405638 0.531800 0.743402
vn 0.829763 -0.089609 0.550875
vn 0.829763 -0.089609 0.550875
vn 0.829763 -0.089609 0.550875
vn 0.829763 -0.089609 0.550875
vn 0.349979 0.474607 0.807628
vn 0.349979 0.474607 0.807628
vn 0.349979 0.474607 0.807628
vn 0.349979 0.474607 0.807628
vn -0.815651 0.065623 -0.574811
vn -0.815651 0.065623 -0.574811
vn -0.815651 0.065623 -0.574811
vn -0.815651 0.065623 -0.574811
vn -0.821604 0.439950 -0.362506
vn -0.821604 0.439950 -0.362506
vn -0.821604 0.439950 -0.362506
vn -0.821604 0.439950 -0.362506
vn -0.804661 0.499745 -0.320588
vn -0.804661 0.499745 -0.320588
vn -0.804661 0.499745 -0.320588
vn -0.804661 0.499745 -0.320588
vn -0.845167 -0.436812 -0.308040
vn -0.845167 -0.436812 -0.308040
vn -0.845167 -0.436812 -0.308040
vn -0.845167 -0.436812 -0.308040
vn 0.783781 -0.545267 0.297273
vn 0.783781 -0.545267 0.297273
vn 0.783781 -0.545267 0.297273
vn 0.783781 -0.545267 0.297273
vn 0.832201 -0.362577 0.419500
vn 0.832201 -0.362577 0.419500
vn 0.832201 -0.362577 0.419500
vn 0.832201 -0.362577 0.419500
vn 0.820410 -0.070675 0.567391
vn 0.820410 -0.070675 0.567391
vn 0.820410 -0.070675 0.567391
vn 0.820410 -0.070675 0.567391
vn -0.820410 -0.070674 0.567391
vn -0.820410 -0.070674 0.567391
vn -0.820410 -0.070674 0.567391
vn -0.820410 -0.070674 0.567391
vn -0.832201 -0.362577 0.419500
vn -0.832201 -0.362577 0.419500
vn -0.832201 -0.362577 0.419500
vn -0.832201 -0.362577 0.419500
vn -0.783781 -0.545267 0.297273
vn -0.783781 -0.545267 0.297273
vn -0.783781 -0.545266 0.297273
vn -0.783781 -0.545266 0.297273
vn 0.845167 -0.436812 -0.308040
vn 0.845167 -0.436812 -0.308040
vn 0.845167 -0.436812 -0.308040
vn 0.845167 -0.436812 -0.308040
vn 0.804661 0.499745 -0.320588
vn 0.804661 0.499745 -0.320588
vn 0.804661 0.499745 -0.320588
vn 0.804661 0.499745 -0.320588
vn 0.821604 0.439950 -0.362506
vn 0.821604 0.439950 -0.362506
vn 0.821604 0.439950 -0.362506
vn 0.821604 0.439950 -0.362506
vn 0.815651 0.065623 -0.574811
vn 0.815651 0.065623 -0.574811
vn 0.815651 0.065623 -0.574811
vn 0.815651 0.065623 -0.574811
vn -0.349979 0.474607 0.807628
vn -0.349979 0.474607 0.807628
vn -0.349979 0.474607 0.807628
vn -0.349979 0.474607 0.807628
vn 0.331493 -0.609702 -0.719983
vn 0.331493 -0.609702 -0.719983
vn 0.331493 -0.609702 -0.719983
vn 0.331493 -0.609702 -0.719983
vn -0.748628 -0.345608 0.565784
vn -0.748628 -0.345608 0.565784
vn -0.748627 -0.345608 0.565784
vn -0.748628 -0.345608 0.565784
vn 0.748050 0.344281 -0.567355
vn 0.748050 0.344281 -0.567355
vn 0.748050 0.344281 -0.567355
vn 0.748050 0.344281 -0.567355
vn -0.784299 -0.157066 0.600171
vn -0.784299 -0.157066 0.600171
vn -0.784299 -0.157066 0.600171
vn -0.784299 -0.157066 0.600171
vn 0.788199 0.175955 -0.589731
vn 0.788199 0.175955 -0.589731
vn 0.788199 0.175955 -0.589731
vn 0.788199 0.175955 -0.589731
vn -0.719569 -0.272336 0.638791
vn -0.719569 -0.272336 0.638791
vn -0.719569 -0.272336 0.638791
vn -0.719569 -0.272336 0.638791
vn -0.101528 0.425579 0.899208
vn -0.101528 0.425579 0.899208
vn -0.101528 0.425579 0.899208
vn -0.101528 0.425579 0.899208
vn 0.719876 0.272729 -0.638277
vn 0.719876 0.272729 -0.638277
vn 0.719876 0.272729 -0.638277
vn 0.719876 0.272729 -0.638277
vn -0.331494 -0.609701 -0.719984
vn -0.331494 -0.609701 -0.719984
vn -0.331494 -0.609701 -0.719984
vn -0.331494 -0.609701 -0.719984
vn -0.748050 0.344281 -0.567355
vn -0.748050 0.344281 -0.567355
vn -0.748050 0.344281 -0.567355
vn -0.748050 0.344281 -0.567355
vn 0.748628 -0.345609 0.565783
vn 0.748628 -0.345609 0.565783
vn 0.748628 -0.345609 0.565783
vn 0.748628 -0.345609 0.565783
vn -0.788199 0.175954 -0.589731
vn -0.788199 0.175954 -0.589731
vn -0.788199 0.175954 -0.589731
vn -0.788199 0.175954 -0.589731
vn 0.784300 -0.157065 0.600171
vn 0.784300 -0.157065 0.600171
vn 0.784300 -0.157065 0.600171
vn 0.784300 -0.157065 0.600171
vn -0.719877 0.272728 -0.638276
vn -0.719877 0.272729 -0.638276
vn -0.719877 0.272729 -0.638276
vn -0.719877 0.272728 -0.638276
vn 0.101530 0.425574 0.899210
vn 0.101530 0.425574 0.899210
vn 0.101530 0.425574 0.899210
vn 0.101530 0.425574 0.899210
vn 0.719569 -0.272336 0.638790
vn 0.719569 -0.272336 0.638790
vn 0.719569 -0.272336 0.638790
vn 0.719569 -0.272336 0.638790
s off
g Wings
usemtl lambert4SG
f 25/63/1 26/107/2 27/108/3 28/64/4
f 29/37/5 30/110/6 31/111/7 32/38/8
f 1/1/9 5/2/10 6/3/11 2/4/12
f 3/29/13 7/30/14 8/31/15 4/32/16
f 1/62/17 2/113/18 10/114/19 9/58/20
f 2/4/21 6/3/22 11/5/23 10/6/24
f 82/27/25 81/117/26 83/118/27 84/24/28
f 5/61/29 1/62/30 9/58/31 12/57/32
f 3/121/33 4/85/34 14/81/35 13/122/36
f 4/85/37 8/86/38 15/82/39 14/81/40
f 90/125/41 89/56/42 91/51/43 92/126/44
f 7/30/45 3/29/46 13/33/47 16/34/48
f 9/58/49 10/114/50 18/115/51 17/59/52
f 10/6/53 11/5/54 19/7/55 18/8/56
f 84/24/57 83/118/58 85/120/59 86/25/60
f 12/57/61 9/58/62 17/59/63 20/60/64
f 13/122/65 14/81/66 22/84/67 21/123/68
f 14/81/69 15/82/70 23/83/71 22/84/72
f 92/126/73 91/51/74 93/50/75 94/128/76
f 16/34/77 13/33/78 21/35/79 24/36/80
f 17/59/81 18/115/82 26/116/83 25/63/84
f 18/8/85 19/7/86 27/11/87 26/12/88
f 86/25/89 85/120/90 87/136/91 88/28/92
f 20/60/93 17/59/94 25/63/95 28/64/96
f 21/123/97 22/84/98 30/90/99 29/124/100
f 22/84/101 23/83/102 31/89/103 30/90/104
f 94/101/105 93/105/106 95/106/107 96/104/108
f 24/36/109 21/35/110 29/37/111 32/38/112
f 6/3/113 5/2/114 76/21/115 77/16/116
f 5/61/117 12/57/118 75/66/119 76/67/120
f 11/5/121 6/3/122 77/16/123 78/9/124
f 12/57/125 20/60/126 74/65/127 75/66/128
f 19/7/129 11/5/130 78/9/131 79/10/132
f 20/60/133 28/64/134 73/68/135 74/65/136
f 28/64/137 27/108/138 80/109/139 73/68/140
f 27/11/141 19/7/142 79/10/143 80/15/144
f 8/31/145 7/30/146 69/47/147 70/53/148
f 7/30/149 16/34/150 68/40/151 69/47/152
f 15/82/153 8/86/154 70/91/155 71/87/156
f 16/34/157 24/36/158 67/39/159 68/40/160
f 23/83/161 15/82/162 71/87/163 72/88/164
f 24/36/165 32/38/166 66/41/167 67/39/168
f 32/38/169 31/111/170 65/112/171 66/41/172
f 31/89/173 23/83/174 72/88/175 65/94/176
f 34/17/177 33/22/178 49/119/179 50/23/180
f 33/71/181 35/70/182 51/74/183 49/75/184
f 36/13/185 34/17/186 50/23/187 52/18/188
f 35/70/189 37/69/190 53/73/191 51/74/192
f 38/14/193 36/13/194 52/18/195 54/19/196
f 37/69/197 39/72/198 55/76/199 53/73/200
f 39/72/201 40/133/202 56/134/203 55/76/204
f 40/20/205 38/14/206 54/19/207 56/26/208
f 42/54/209 41/48/210 57/52/211 58/127/212
f 41/48/213 43/43/214 59/46/215 57/52/216
f 44/92/217 42/95/218 58/99/219 60/96/220
f 43/43/221 45/42/222 61/45/223 59/46/224
f 46/93/225 44/92/226 60/96/227 62/97/228
f 45/42/229 47/44/230 63/49/231 61/45/232
f 47/44/233 48/129/234 64/130/235 63/49/236
f 48/98/237 46/93/238 62/97/239 64/102/240
f 66/41/241 65/112/242 48/129/243 47/44/244
f 67/39/245 66/41/246 47/44/247 45/42/248
f 68/40/249 67/39/250 45/42/251 43/43/252
f 69/47/253 68/40/254 43/43/255 41/48/256
f 70/53/257 69/47/258 41/48/259 42/54/260
f 71/87/261 70/91/262 42/95/263 44/92/264
f 72/88/265 71/87/266 44/92/267 46/93/268
f 65/94/269 72/88/270 46/93/271 48/98/272
f 74/65/273 73/68/274 39/72/275 37/69/276
f 75/66/277 74/65/278 37/69/279 35/70/280
f 76/67/281 75/66/282 35/70/283 33/71/284
f 77/16/285 76/21/286 33/22/287 34/17/288
f 78/9/289 77/16/290 34/17/291 36/13/292
f 79/10/293 78/9/294 36/13/295 38/14/296
f 80/15/297 79/10/298 38/14/299 40/20/300
f 73/68/301 80/132/302 40/133/303 39/72/304
f 50/23/305 49/119/306 81/117/307 82/27/308
f 49/75/309 51/74/310 83/78/311 81/79/312
f 52/18/313 50/23/314 82/27/315 84/24/316
f 51/74/317 53/73/318 85/77/319 83/78/320
f 54/19/321 52/18/322 84/24/323 86/25/324
f 53/73/325 55/76/326 87/80/327 85/77/328
f 55/76/329 56/134/330 88/135/331 87/80/332
f 56/26/333 54/19/334 86/25/335 88/28/336
f 58/127/337 57/52/338 89/56/339 90/125/340
f 57/52/341 59/46/342 91/51/343 89/56/344
f 60/96/345 58/99/346 90/103/347 92/100/348
f 59/46/349 61/45/350 93/50/351 91/51/352
f 62/97/353 60/96/354 92/100/355 94/101/356
f 61/45/357 63/49/358 95/55/359 93/50/360
f 63/49/361 64/130/362 96/131/363 95/55/364
f 64/102/365 62/97/366 94/101/367 96/104/368
