# This file uses centimeters as units for non-parametric coordinates.

v -0.242880 0.066436 -0.303509
v 0.553917 -0.168312 -0.264258
v 0.159413 1.394228 -0.528950
v 0.956211 1.159479 -0.489700
v -0.242521 0.076870 -0.248394
v 0.554276 -0.157878 -0.209144
v 0.152858 -0.128277 -0.692410
v 0.158180 0.026401 0.124644
v 0.530215 1.199818 -0.946788
v 0.535538 1.354496 -0.129732
v 0.103346 -0.117236 -0.695166
v 0.108669 0.037443 0.121889
v -0.534600 0.085884 -0.193811
v 0.295098 0.031485 -0.207045
v -0.443339 1.487900 -0.235239
v 0.386360 1.433501 -0.248473
v -0.533529 0.088592 -0.137793
v 0.296169 0.034193 -0.151026
v -0.127690 0.038614 -0.615660
v -0.111812 0.078755 0.214804
v -0.062365 1.439276 -0.685098
v -0.046487 1.479417 0.145367
v -0.178492 0.038614 -0.615660
v -0.162614 0.078755 0.214804
v -0.362849 0.199507 0.168174
v 0.435509 -0.026786 0.113861
v 0.027458 1.542269 0.310812
v 0.825816 1.315976 0.256497
v -0.360588 0.194095 0.223961
v 0.437770 -0.032198 0.169648
v 0.019568 0.126474 -0.272495
v 0.053092 0.046247 0.554531
v 0.383939 1.477315 -0.156714
v 0.417464 1.397088 0.670313
v -0.030042 0.137221 -0.270417
v 0.003483 0.056994 0.556609
v -0.565381 0.002084 0.154555
v 0.241941 0.185274 0.075781
v -0.827556 1.326147 0.546749
v -0.020233 1.509337 0.467973
v -0.557138 -0.011062 0.208461
v 0.250184 0.172127 0.129686
v -0.222820 0.191126 -0.284399
v -0.100620 -0.003768 0.514735
v -0.513480 1.514741 0.082348
v -0.391281 1.319846 0.881484
v -0.271549 0.177082 -0.281382
v -0.149349 -0.017812 0.517752
v -0.335240 0.003964 -0.133679
v 0.477943 0.177208 -0.149617
v -0.627154 1.347131 -0.427588
v 0.186029 1.520374 -0.443528
v -0.336889 0.016725 -0.079080
v 0.476294 0.189968 -0.095018
v 0.083570 -0.003998 -0.546354
v 0.059133 0.185170 0.263059
v -0.231948 1.325838 -0.867177
v -0.256385 1.515007 -0.057762
v 0.034712 -0.017898 -0.545578
v 0.010275 0.171270 0.263836
vt 0.000000 1.000000
vt 1.000000 1.000000
vt 0.000000 0.000000
vt 1.000000 0.000000
vt 1.000000 1.000000
vt 0.000000 1.000000
vt 0.000000 0.000000
vt 1.000000 0.000000
vt 0.000000 0.000000
vt 1.000000 0.000000
vt 1.000000 1.000000
vt 0.000000 1.000000
vt 0.000000 0.000000
vt 0.000000 1.000000
vt 1.000000 1.000000
vt 1.000000 0.000000
vt 0.000000 0.000000
vt 1.000000 0.000000
vt 1.000000 1.000000
vt 0.000000 1.000000
vt 0.000000 0.000000
vt 0.000000 1.000000
vt 1.000000 1.000000
vt 1.000000 0.000000
vt 0.000000 0.000000
vt 1.000000 0.000000
vt 1.000000 1.000000
vt 0.000000 1.000000
vt 0.000000 0.000000
vt 0.000000 1.000000
vt 1.000000 1.000000
vt 1.000000 0.000000
vt 0.000000 0.000000
vt 1.000000 0.000000
vt 1.000000 1.000000
vt 0.000000 1.000000
vt 0.000000 0.000000
vt 0.000000 1.000000
vt 1.000000 1.000000
vt 1.000000 0.000000
vt 0.000000 0.000000
vt 1.000000 0.000000
vt 1.000000 1.000000
vt 0.000000 1.000000
vt 0.000000 0.000000
vt 0.000000 1.000000
vt 1.000000 1.000000
vt 1.000000 0.000000
vt 0.000000 0.000000
vt 1.000000 0.000000
vt 1.000000 1.000000
vt 0.000000 1.000000
vt 0.000000 0.000000
vt 0.000000 1.000000
vt 1.000000 1.000000
vt 1.000000 0.000000
vt 0.000000 0.000000
vt 1.000000 0.000000
vt 1.000000 1.000000
vt 0.000000 1.000000
vt 0.000000 0.000000
vt 0.000000 1.000000
vt 1.000000 1.000000
vt 1.000000 0.000000
vt 0.000000 0.000000
vt 1.000000 0.000000
vt 1.000000 1.000000
vt 0.000000 1.000000
vt 0.000000 0.000000
vt 0.000000 1.000000
vt 1.000000 1.000000
vt 1.000000 0.000000
vt 0.000000 0.000000
vt 1.000000 0.000000
vt 1.000000 1.000000
vt 0.000000 1.000000
vt 0.000000 0.000000
vt 0.000000 1.000000
vt 1.000000 1.000000
vt 1.000000 0.000000
vn 0.012109 0.204746 0.978740
vn 0.012109 0.204746 0.978740
vn 0.012109 0.204746 0.978740
vn 0.012109 0.204746 0.978740
vn -0.000689 -0.167188 -0.985925
vn -0.000689 -0.167188 -0.985925
vn -0.000689 -0.167188 -0.985925
vn -0.000689 -0.167188 -0.985925
vn -0.952858 0.299195 -0.050434
vn -0.952858 0.299195 -0.050434
vn -0.952858 0.299195 -0.050434
vn -0.952858 0.299195 -0.050434
vn 0.963176 -0.265255 0.043942
vn 0.963176 -0.265255 0.043942
vn 0.963176 -0.265255 0.043942
vn 0.963176 -0.265255 0.043942
vn 0.020378 0.068150 0.997467
vn 0.020378 0.068150 0.997467
vn 0.020378 0.068150 0.997467
vn 0.020378 0.068150 0.997467
vn -0.017801 -0.028374 -0.999439
vn -0.017801 -0.028374 -0.999439
vn -0.017801 -0.028374 -0.999439
vn -0.017801 -0.028374 -0.999439
vn -0.996407 0.083356 0.015021
vn -0.996407 0.083356 0.015021
vn -0.996407 0.083356 0.015021
vn -0.996407 0.083356 0.015021
vn 0.998734 -0.047413 -0.016803
vn 0.998734 -0.047413 -0.016803
vn 0.998734 -0.047413 -0.016803
vn 0.998734 -0.047413 -0.016803
vn 0.045831 -0.077351 0.995950
vn 0.045831 -0.077351 0.995950
vn 0.045831 -0.077351 0.995950
vn 0.045831 -0.077351 0.995950
vn -0.034780 0.115560 -0.992691
vn -0.034780 0.115560 -0.992692
vn -0.034780 0.115560 -0.992691
vn -0.034780 0.115560 -0.992692
vn -0.954900 0.289321 0.066774
vn -0.954900 0.289321 0.066774
vn -0.954900 0.289321 0.066774
vn -0.954900 0.289321 0.066774
vn 0.964886 -0.254794 -0.063830
vn 0.964886 -0.254794 -0.063830
vn 0.964886 -0.254794 -0.063830
vn 0.964886 -0.254794 -0.063830
vn 0.143138 -0.215425 0.965973
vn 0.143138 -0.215425 0.965973
vn 0.143138 -0.215425 0.965973
vn 0.143138 -0.215425 0.965973
vn -0.150700 0.253213 -0.955601
vn -0.150700 0.253213 -0.955601
vn -0.150700 0.253213 -0.955601
vn -0.150700 0.253213 -0.955601
vn -0.974079 -0.203201 0.099394
vn -0.974079 -0.203201 0.099394
vn -0.974079 -0.203201 0.099394
vn -0.974079 -0.203201 0.099394
vn 0.967245 0.237347 -0.090021
vn 0.967245 0.237347 -0.090021
vn 0.967245 0.237347 -0.090021
vn 0.967245 0.237347 -0.090021
vn -0.033513 0.246416 0.968585
vn -0.033513 0.246416 0.968585
vn -0.033513 0.246416 0.968585
vn -0.033513 0.246416 0.968585
vn 0.025246 -0.208454 -0.977706
vn 0.025246 -0.208454 -0.977706
vn 0.025246 -0.208454 -0.977706
vn 0.025246 -0.208454 -0.977706
vn -0.981443 -0.191163 0.015047
vn -0.981443 -0.191163 0.015047
vn -0.981443 -0.191163 0.015047
vn -0.981443 -0.191163 0.015047
vn 0.973972 0.225467 -0.023289
vn 0.973972 0.225467 -0.023289
vn 0.973972 0.225467 -0.023289
vn 0.973972 0.225467 -0.023289
s off
f 5/7/1 6/8/2 4/2/3 3/1/4
f 1/3/5 3/6/6 4/5/7 2/4/8
f 11/9/9 12/10/10 10/11/11 9/12/12
f 7/13/13 9/14/14 10/15/15 8/16/16
f 17/17/17 18/18/18 16/19/19 15/20/20
f 13/21/21 15/22/22 16/23/23 14/24/24
f 23/25/25 24/26/26 22/27/27 21/28/28
f 19/29/29 21/30/30 22/31/31 20/32/32
f 29/33/33 30/34/34 28/35/35 27/36/36
f 25/37/37 27/38/38 28/39/39 26/40/40
f 35/41/41 36/42/42 34/43/43 33/44/44
f 31/45/45 33/46/46 34/47/47 32/48/48
f 41/49/49 42/50/50 40/51/51 39/52/52
f 37/53/53 39/54/54 40/55/55 38/56/56
f 47/57/57 48/58/58 46/59/59 45/60/60
f 43/61/61 45/62/62 46/63/63 44/64/64
f 53/65/65 54/66/66 52/67/67 51/68/68
f 49/69/69 51/70/70 52/71/71 50/72/72
f 59/73/73 60/74/74 58/75/75 57/76/76
f 55/77/77 57/78/78 58/79/79 56/80/80
