# This file uses centimeters as units for non-parametric coordinates.

mtllib Urtica v1.mtl
g default
v 0.021915 0.089647 -0.016155
v -0.604588 -0.089647 0.500451
v -0.162932 1.459882 0.235233
v -0.789435 1.280587 0.751839
vt 0.000000 0.000000
vt 1.000000 0.000000
vt 0.000000 1.000000
vt 1.000000 1.000000
vn -0.644292 0.053055 -0.762937
vn -0.644292 0.053055 -0.762937
vn -0.644292 0.053055 -0.762937
vn -0.644292 0.053055 -0.762937
s off
g pPlane8 group13
usemtl lambert3SG
f 1/1/1 2/2/2 4/4/3 3/3/4
g default
v -0.631181 -0.048114 -0.384847
v -0.009600 0.048113 0.392570
v -0.815371 1.630649 -0.445372
v -0.193790 1.726876 0.332046
vt 0.000000 0.000000
vt 1.000000 0.000000
vt 0.000000 1.000000
vt 1.000000 1.000000
vn -0.775730 -0.062471 0.627965
vn -0.775730 -0.062471 0.627965
vn -0.775730 -0.062471 0.627965
vn -0.775730 -0.062471 0.627965
s off
g group13 pPlane7
usemtl lambert3SG
f 5/5/5 6/6/6 8/8/7 7/7/8
g default
v 0.067475 0.031236 -0.310121
v -0.708255 -0.031236 0.317844
v -0.116715 1.709998 -0.370646
v -0.892446 1.647527 0.257319
vt 0.000000 0.000000
vt 1.000000 0.000000
vt 0.000000 1.000000
vt 1.000000 1.000000
vn -0.621581 -0.096227 -0.777417
vn -0.621581 -0.096227 -0.777417
vn -0.621581 -0.096227 -0.777417
vn -0.621581 -0.096227 -0.777417
s off
g group13 pPlane35
usemtl lambert3SG
f 9/9/9 10/10/10 12/12/11 11/11/12
g default
v -0.306292 0.032708 -0.170875
v 0.306292 -0.032708 0.616818
v -0.173975 1.717035 -0.133899
v 0.438610 1.651619 0.653794
vt 0.000000 0.000000
vt 1.000000 0.000000
vt 0.000000 1.000000
vt 1.000000 1.000000
vn -0.786517 0.048271 0.615679
vn -0.786517 0.048271 0.615679
vn -0.786517 0.048271 0.615679
vn -0.786517 0.048271 0.615679
s off
g group13 pPlane36
usemtl lambert3SG
f 13/13/13 14/14/14 16/16/15 15/15/16
g default
v 0.393258 -0.024136 -0.084868
v -0.393258 0.024135 0.530811
v 0.525576 1.660191 -0.047892
v -0.260941 1.708462 0.567787
vt 0.000000 0.000000
vt 1.000000 0.000000
vt 0.000000 1.000000
vt 1.000000 1.000000
vn -0.612585 0.065416 -0.787693
vn -0.612585 0.065416 -0.787693
vn -0.612585 0.065416 -0.787693
vn -0.612585 0.065416 -0.787693
s off
g group13 pPlane37
usemtl lambert3SG
f 17/17/17 18/18/18 20/20/19 19/19/20
g default
v -0.009547 -0.024136 -0.785429
v 0.009547 0.024135 0.213223
v 0.099554 1.660191 -0.868929
v 0.118647 1.708462 0.129723
vt 0.000000 0.000000
vt 1.000000 0.000000
vt 0.000000 1.000000
vt 1.000000 1.000000
vn -0.997731 0.065416 0.015914
vn -0.997731 0.065416 0.015914
vn -0.997731 0.065416 0.015914
vn -0.997731 0.065416 0.015914
s off
g group13 pPlane38
usemtl lambert3SG
f 21/21/21 22/22/22 24/24/23 23/23/24
g default
v -0.498866 0.032708 -0.278146
v 0.498866 -0.032708 -0.294060
v -0.389765 1.717035 -0.361646
v 0.607966 1.651619 -0.377560
vt 0.000000 0.000000
vt 1.000000 0.000000
vt 0.000000 1.000000
vt 1.000000 1.000000
vn 0.019094 0.048271 0.998652
vn 0.019094 0.048271 0.998652
vn 0.019094 0.048271 0.998652
vn 0.019094 0.048271 0.998652
s off
g group13 pPlane39
usemtl lambert3SG
f 25/25/25 26/26/26 28/28/27 27/27/28
g default
v -0.197939 0.125054 -0.020826
v 0.526992 -0.125054 -0.033031
v 0.223297 1.349121 -0.084867
v 0.948228 1.099013 -0.097073
vt 0.000000 0.000000
vt 1.000000 0.000000
vt 0.000000 1.000000
vt 1.000000 1.000000
vn 0.031142 0.041531 0.998652
vn 0.031142 0.041531 0.998652
vn 0.031142 0.041531 0.998652
vn 0.031142 0.041531 0.998652
s off
g group13 pPlane40
usemtl lambert3SG
f 29/29/29 30/30/30 32/32/31 31/31/32
g default
v 0.152584 -0.015926 -0.409892
v 0.176469 0.015926 0.356034
v 0.573820 1.208141 -0.473933
v 0.597705 1.239994 0.291993
vt 0.000000 0.000000
vt 1.000000 0.000000
vt 0.000000 1.000000
vt 1.000000 1.000000
vn -0.945200 0.326102 0.015914
vn -0.945200 0.326102 0.015914
vn -0.945200 0.326102 0.015914
vn -0.945201 0.326102 0.015914
s off
g group13 pPlane41
usemtl lambert3SG
f 33/33/33 34/34/34 36/36/35 35/35/36
g default
v -0.559228 0.022060 -0.075076
v -0.023445 -0.022060 0.559371
v -0.744075 1.392294 0.176312
v -0.208292 1.348174 0.810760
vt 0.000000 0.000000
vt 1.000000 0.000000
vt 0.000000 1.000000
vt 1.000000 1.000000
vn -0.753383 -0.215606 0.621231
vn -0.753383 -0.215606 0.621231
vn -0.753383 -0.215606 0.621231
vn -0.753383 -0.215606 0.621231
s off
g group13 pPlane42
usemtl lambert3SG
f 37/37/37 38/38/38 40/40/39 39/39/40
