# This file uses centimeters as units for non-parametric coordinates.

v -0.145743 0.448526 0.530606
v 0.228158 0.638632 0.356611
v 0.602059 0.603287 0.101336
v -0.602059 0.702145 -0.172875
v -0.228158 0.892251 -0.346870
v 0.145743 0.856906 -0.602145
v -0.149364 0.462362 0.537943
v 0.228158 0.654307 0.362262
v -0.228158 0.907927 -0.341219
v -0.605679 0.715981 -0.165538
v 0.605679 0.618621 0.104516
v 0.149364 0.872240 -0.598965
v 0.185525 1.293291 0.296468
v -0.037177 1.192274 -0.086176
v -0.028371 1.098293 -0.530367
v 0.259880 0.439625 0.478559
v 0.037178 0.338608 0.095916
v 0.045984 0.244627 -0.348276
v 0.171584 1.293780 0.304452
v -0.053275 1.191785 -0.081896
v 0.021080 0.338119 0.100196
v 0.245939 0.440114 0.486543
v -0.044383 1.096893 -0.530389
v 0.029972 0.243227 -0.348297
v 0.105380 0.602743 0.605286
v 0.174269 0.971744 0.349729
v 0.442722 1.209992 0.071544
v -0.243158 0.190138 -0.084431
v -0.174269 0.559138 -0.339988
v 0.094185 0.797387 -0.618173
v 0.090836 0.608262 0.609334
v 0.160393 0.980835 0.351303
v -0.188145 0.568230 -0.338415
v -0.257701 0.195656 -0.080384
v 0.431446 1.221391 0.070424
v 0.082908 0.808785 -0.619293
v 0.327846 0.831808 0.535379
v 0.367515 0.954640 0.100000
v 0.525794 0.870029 -0.317139
v -0.407184 0.394814 0.345119
v -0.367515 0.517647 -0.090260
v -0.209237 0.433035 -0.507399
v 0.319215 0.845042 0.538327
v 0.359268 0.969064 0.098732
v -0.375762 0.532071 -0.091528
v -0.415816 0.408049 0.348067
v 0.519079 0.883634 -0.322446
v -0.215951 0.446640 -0.512706
v -0.438016 0.824839 0.450235
v 0.000000 0.932017 0.396650
v 0.438016 0.824839 0.450235
v -0.438016 0.433092 -0.333325
v 0.000000 0.540270 -0.386909
v 0.438016 0.433092 -0.333325
v -0.442257 0.838706 0.443302
v 0.000000 0.946922 0.389199
v 0.000000 0.555175 -0.394361
v -0.442257 0.446959 -0.340258
v 0.442257 0.838706 0.443302
v 0.442257 0.446959 -0.340258
v -0.341308 0.610300 0.520376
v 0.030781 0.438530 0.324771
v 0.219541 0.145351 0.033855
v -0.402870 1.205527 -0.119425
v -0.030781 1.033757 -0.315030
v 0.157979 0.740578 -0.605947
v -0.332164 0.620405 0.528898
v 0.043528 0.446972 0.331398
v -0.018033 1.042199 -0.308403
v -0.393725 1.215632 -0.110904
v 0.234116 0.150954 0.037665
v 0.172554 0.746181 -0.602136
v -0.045257 0.000000 0.022976
v -0.018105 0.000000 0.050127
v -0.031127 0.678150 0.017323
v -0.012453 0.678150 0.035997
v 0.045257 0.000000 0.022976
v 0.018106 0.000000 0.050127
v 0.031127 0.678150 0.017323
v 0.012453 0.678150 0.035997
v -0.031127 0.678150 -0.007582
v -0.012453 0.678150 -0.026257
v -0.045257 0.000000 -0.013235
v -0.018105 0.000000 -0.040387
v 0.012453 0.678150 -0.026257
v 0.031127 0.678150 -0.007582
v 0.045257 0.000000 -0.013235
v 0.018106 0.000000 -0.040387
v -0.029961 0.241942 0.023698
v -0.029961 0.241942 -0.010703
v -0.004167 0.241942 -0.036498
v 0.030235 0.241942 -0.036498
v 0.056029 0.241942 -0.010703
v 0.056029 0.241942 0.023698
v 0.030235 0.241942 0.049493
v -0.004167 0.241942 0.049493
vt 0.006902 0.005322
vt 0.499137 0.005322
vt 0.006902 0.005322
vt 0.006902 0.993220
vt 0.499137 0.993220
vt 0.006902 0.993220
vt 0.006902 0.005322
vt 0.499137 0.005322
vt 0.499137 0.993220
vt 0.006902 0.993220
vt 0.006902 0.005322
vt 0.006902 0.993220
vt 0.006902 0.005322
vt 0.499137 0.005322
vt 0.499137 0.993220
vt 0.006902 0.993220
vt 0.006902 0.005322
vt 0.006902 0.993220
vt 0.006902 0.005322
vt 0.499137 0.005322
vt 0.499137 0.993220
vt 0.006902 0.993220
vt 0.006902 0.005322
vt 0.006902 0.993220
vt 0.006902 0.005322
vt 0.006902 0.993220
vt 0.499137 0.993220
vt 0.499137 0.005322
vt 0.006902 0.993220
vt 0.006902 0.005322
vt 0.006902 0.005322
vt 0.499137 0.005322
vt 0.499137 0.993220
vt 0.006902 0.993220
vt 0.006902 0.005322
vt 0.006902 0.993220
vt 0.006902 0.005322
vt 0.499137 0.005322
vt 0.499137 0.993220
vt 0.006902 0.993220
vt 0.006902 0.005322
vt 0.006902 0.993220
vt 0.006902 0.005322
vt 0.006902 0.993220
vt 0.499137 0.993220
vt 0.499137 0.005322
vt 0.006902 0.993220
vt 0.006902 0.005322
vt 0.006902 0.005322
vt 0.499137 0.005322
vt 0.499137 0.993220
vt 0.006902 0.993220
vt 0.006902 0.005322
vt 0.006902 0.993220
vt 0.006902 0.005322
vt 0.499137 0.005322
vt 0.499137 0.993220
vt 0.006902 0.993220
vt 0.006902 0.005322
vt 0.006902 0.993220
vt 0.006902 0.005322
vt 0.006902 0.993220
vt 0.499137 0.993220
vt 0.499137 0.005322
vt 0.006902 0.993220
vt 0.006902 0.005322
vt 0.006902 0.005322
vt 0.499137 0.005322
vt 0.499137 0.993220
vt 0.006902 0.993220
vt 0.006902 0.005322
vt 0.006902 0.993220
vt 0.006902 0.005322
vt 0.499137 0.005322
vt 0.499137 0.993220
vt 0.006902 0.993220
vt 0.006902 0.005322
vt 0.006902 0.993220
vt 0.006902 0.005322
vt 0.006902 0.993220
vt 0.499137 0.993220
vt 0.499137 0.005322
vt 0.006902 0.993220
vt 0.006902 0.005322
vt 0.006902 0.005322
vt 0.499137 0.005322
vt 0.499137 0.993220
vt 0.006902 0.993220
vt 0.006902 0.005322
vt 0.006902 0.993220
vt 0.006902 0.005322
vt 0.499137 0.005322
vt 0.499137 0.993220
vt 0.006902 0.993220
vt 0.006902 0.005322
vt 0.006902 0.993220
vt 0.006902 0.005322
vt 0.006902 0.993220
vt 0.499137 0.993220
vt 0.499137 0.005322
vt 0.006902 0.993220
vt 0.006902 0.005322
vt 0.006902 0.005322
vt 0.499137 0.005322
vt 0.499137 0.993220
vt 0.006902 0.993220
vt 0.006902 0.005322
vt 0.006902 0.993220
vt 0.694333 0.358481
vt 0.694333 0.086606
vt 0.751335 0.086606
vt 0.751335 0.358481
vt 0.507089 0.086606
vt 0.507090 0.358481
vt 0.937921 0.358481
vt 0.813835 0.358481
vt 0.813835 0.086606
vt 0.874454 0.086606
vt 0.874454 0.358481
vt 0.571416 0.358481
vt 0.571416 0.086606
vt 0.632282 0.086606
vt 0.632282 0.358481
vt 0.632282 0.848659
vt 0.694333 0.848659
vt 0.751335 0.848659
vt 0.813835 0.848659
vt 0.874454 0.848659
vt 0.507089 0.848659
vt 0.571416 0.848659
vt 0.996827 0.358481
vt 0.937921 0.086606
vt 0.996827 0.086606
vt 0.996827 0.848659
vt 0.937921 0.848659
vn -0.225247 0.860774 0.456434
vn -0.000000 0.940731 0.339153
vn -0.000000 0.940731 0.339153
vn -0.225247 0.860774 0.456434
vn 0.225247 0.954006 0.197831
vn 0.225247 0.954006 0.197831
vn 0.225247 -0.860774 -0.456434
vn 0.225247 -0.860774 -0.456434
vn 0.000000 -0.940731 -0.339153
vn -0.000000 -0.940731 -0.339153
vn -0.225247 -0.954006 -0.197831
vn -0.225247 -0.954006 -0.197831
vn 0.520892 -0.289520 0.803025
vn 0.520890 -0.289516 0.803028
vn 0.520890 -0.289516 0.803028
vn 0.520892 -0.289520 0.803025
vn -0.520889 0.289505 -0.803033
vn -0.520888 0.289501 -0.803035
vn -0.520888 0.289501 -0.803035
vn -0.520889 0.289505 -0.803033
vn -0.823368 -0.418640 0.383153
vn -0.823368 -0.418640 0.383153
vn -0.823368 -0.418640 0.383153
vn -0.823368 -0.418640 0.383153
vn 0.520888 -0.289512 0.803031
vn 0.520888 -0.289512 0.803031
vn 0.823369 -0.077837 -0.562143
vn 0.823369 -0.077837 -0.562143
vn 0.823369 -0.077837 -0.562143
vn 0.823369 -0.077837 -0.562143
vn -0.520889 0.289508 -0.803031
vn -0.520889 0.289508 -0.803031
vn -0.867346 0.030418 0.496775
vn -0.966012 -0.029358 0.256824
vn -0.966012 -0.029358 0.256824
vn -0.867346 0.030418 0.496775
vn -0.996203 -0.087054 -0.001331
vn -0.996203 -0.087054 -0.001331
vn 0.867346 -0.030418 -0.496775
vn 0.867346 -0.030418 -0.496775
vn 0.966012 0.029358 -0.256824
vn 0.966012 0.029358 -0.256824
vn 0.996203 0.087054 0.001331
vn 0.996203 0.087054 0.001331
vn -0.084871 0.974469 -0.207863
vn -0.084879 0.974469 -0.207861
vn -0.084879 0.974469 -0.207861
vn -0.084871 0.974469 -0.207863
vn 0.084877 -0.974469 0.207860
vn 0.084876 -0.974469 0.207860
vn 0.084876 -0.974469 0.207860
vn 0.084877 -0.974469 0.207860
vn 0.490414 0.222450 0.842621
vn 0.490414 0.222450 0.842621
vn 0.490414 0.222450 0.842621
vn 0.490414 0.222450 0.842621
vn -0.084888 0.974468 -0.207859
vn -0.084888 0.974468 -0.207859
vn 0.019399 -0.206957 -0.978158
vn 0.019399 -0.206957 -0.978158
vn 0.019399 -0.206957 -0.978158
vn 0.019399 -0.206957 -0.978158
vn 0.084877 -0.974469 0.207859
vn 0.084877 -0.974469 0.207859
vn -0.904818 0.343338 0.251842
vn -0.832719 0.545586 0.094418
vn -0.832719 0.545586 0.094418
vn -0.904818 0.343338 0.251842
vn -0.701594 0.709160 -0.069698
vn -0.701594 0.709160 -0.069698
vn 0.904818 -0.343339 -0.251841
vn 0.904817 -0.343339 -0.251841
vn 0.832719 -0.545586 -0.094418
vn 0.832719 -0.545586 -0.094418
vn 0.701594 -0.709160 0.069697
vn 0.701594 -0.709160 0.069697
vn 0.397865 0.470991 0.787319
vn 0.397867 0.470987 0.787321
vn 0.397867 0.470987 0.787321
vn 0.397865 0.470991 0.787319
vn -0.397852 -0.470999 -0.787321
vn -0.397853 -0.470996 -0.787322
vn -0.397853 -0.470996 -0.787322
vn -0.397852 -0.470999 -0.787321
vn -0.151707 -0.812576 0.562766
vn -0.151707 -0.812576 0.562766
vn -0.151707 -0.812576 0.562766
vn -0.151707 -0.812576 0.562766
vn 0.397869 0.470982 0.787322
vn 0.397869 0.470982 0.787322
vn 0.591165 0.524646 -0.612593
vn 0.591165 0.524646 -0.612593
vn 0.591165 0.524646 -0.612593
vn 0.591165 0.524646 -0.612593
vn -0.397851 -0.471002 -0.787319
vn -0.397851 -0.471002 -0.787319
vn -0.537003 0.823408 0.183378
vn -0.494920 0.865599 -0.076108
vn -0.494920 0.865599 -0.076108
vn -0.537003 0.823408 0.183378
vn -0.417754 0.846433 -0.330200
vn -0.417754 0.846433 -0.330200
vn 0.537003 -0.823408 -0.183378
vn 0.537003 -0.823408 -0.183378
vn 0.494920 -0.865599 0.076109
vn 0.494920 -0.865599 0.076108
vn 0.417754 -0.846433 0.330200
vn 0.417754 -0.846433 0.330200
vn 0.839038 0.498845 0.217186
vn 0.839037 0.498847 0.217182
vn 0.839037 0.498847 0.217182
vn 0.839037 0.498845 0.217186
vn -0.839044 -0.498836 -0.217183
vn -0.839043 -0.498836 -0.217184
vn -0.839043 -0.498836 -0.217184
vn -0.839044 -0.498836 -0.217183
vn -0.087357 -0.270488 0.958752
vn -0.087357 -0.270488 0.958752
vn -0.087357 -0.270488 0.958752
vn -0.087357 -0.270488 0.958752
vn 0.839037 0.498849 0.217178
vn 0.839037 0.498849 0.217178
vn 0.348543 -0.186317 -0.918588
vn 0.348543 -0.186317 -0.918588
vn 0.348543 -0.186317 -0.918588
vn 0.348543 -0.186317 -0.918588
vn -0.839044 -0.498836 -0.217182
vn -0.839044 -0.498836 -0.217182
vn -0.263872 0.862741 -0.431334
vn 0.000000 0.894442 -0.447183
vn 0.000000 0.894442 -0.447183
vn -0.263872 0.862741 -0.431334
vn 0.263872 0.862741 -0.431334
vn 0.263872 0.862741 -0.431334
vn 0.263872 -0.862741 0.431334
vn 0.263872 -0.862741 0.431334
vn -0.000000 -0.894442 0.447183
vn -0.000000 -0.894442 0.447183
vn -0.263872 -0.862741 0.431334
vn -0.263872 -0.862741 0.431334
vn 0.000003 0.447172 0.894448
vn -0.000000 0.447173 0.894448
vn -0.000000 0.447173 0.894448
vn 0.000003 0.447172 0.894448
vn -0.000000 -0.447195 -0.894437
vn 0.000004 -0.447194 -0.894437
vn 0.000004 -0.447194 -0.894437
vn -0.000000 -0.447195 -0.894437
vn -0.964558 -0.236017 0.117999
vn -0.964558 -0.236017 0.117999
vn -0.964558 -0.236017 0.117999
vn -0.964558 -0.236017 0.117999
vn -0.000003 0.447173 0.894447
vn -0.000003 0.447173 0.894447
vn 0.964558 -0.236016 0.117999
vn 0.964558 -0.236016 0.117999
vn 0.964558 -0.236016 0.117999
vn 0.964558 -0.236016 0.117999
vn -0.000004 -0.447196 -0.894436
vn -0.000004 -0.447196 -0.894436
vn 0.568928 0.628696 0.530153
vn 0.764974 0.506603 0.397702
vn 0.764975 0.506603 0.397702
vn 0.568928 0.628696 0.530153
vn 0.906797 0.348599 0.237061
vn 0.906797 0.348599 0.237061
vn -0.568928 -0.628696 -0.530153
vn -0.568928 -0.628696 -0.530153
vn -0.764975 -0.506603 -0.397703
vn -0.764975 -0.506603 -0.397703
vn -0.906797 -0.348599 -0.237061
vn -0.906797 -0.348599 -0.237061
vn 0.070271 -0.679462 0.730338
vn 0.070271 -0.679461 0.730339
vn 0.070271 -0.679461 0.730339
vn 0.070271 -0.679462 0.730338
vn -0.070272 0.679460 -0.730339
vn -0.070272 0.679460 -0.730339
vn -0.070272 0.679460 -0.730339
vn -0.070272 0.679460 -0.730339
vn -0.819377 0.378258 0.430746
vn -0.819377 0.378258 0.430746
vn -0.819377 0.378258 0.430746
vn -0.819377 0.378258 0.430746
vn 0.070270 -0.679461 0.730339
vn 0.070270 -0.679461 0.730339
vn 0.415675 -0.645609 -0.640628
vn 0.415674 -0.645609 -0.640628
vn 0.415674 -0.645609 -0.640628
vn 0.415675 -0.645609 -0.640628
vn -0.070272 0.679460 -0.730340
vn -0.070272 0.679460 -0.730340
vn 0.000000 0.019510 0.999810
vn 0.000000 0.002623 0.999997
vn 0.000000 0.002623 0.999997
vn 0.000000 0.019714 0.999806
vn 0.000000 0.016073 -0.999871
vn 0.000000 0.020486 -0.999790
vn 0.000000 0.020540 -0.999789
vn 0.000000 0.016073 -0.999871
vn 0.999864 0.016491 -0.000000
vn 0.999010 -0.044480 -0.000000
vn 0.999010 -0.044480 -0.000000
vn 0.999866 0.016399 -0.000000
vn -0.999719 0.023706 0.000000
vn -0.998008 0.063094 0.000000
vn -0.998008 0.063094 0.000000
vn -0.999720 0.023646 0.000000
vn -0.706467 0.042554 0.706465
vn -0.706467 0.042554 0.706465
vn -0.706937 0.022002 0.706934
vn -0.706934 0.022198 0.706931
vn 0.706710 -0.033576 0.706707
vn 0.706709 -0.033576 0.706707
vn 0.707004 0.017164 0.707001
vn 0.707009 0.016787 0.707006
vn -0.706923 0.022850 -0.706921
vn -0.706927 0.022632 -0.706924
vn -0.706150 0.052033 -0.706148
vn -0.706150 0.052033 -0.706148
vn 0.707001 0.017418 -0.706998
vn 0.706996 0.017817 -0.706993
vn 0.706903 -0.024076 -0.706900
vn 0.706903 -0.024076 -0.706900
vn -0.999996 -0.002672 0.000000
vn -0.999996 -0.002672 0.000000
vn -0.707105 0.003170 -0.707102
vn -0.707105 0.003170 -0.707102
vn 0.000000 0.023471 -0.999725
vn 0.000000 0.023471 -0.999725
vn 0.706380 0.045379 -0.706377
vn 0.706380 0.045379 -0.706377
vn 0.998375 0.056995 -0.000000
vn 0.998375 0.056995 -0.000000
vn 0.706201 0.050637 0.706198
vn 0.706201 0.050637 0.706198
vn 0.000000 0.030923 0.999522
vn 0.000000 0.030923 0.999522
vn -0.707083 0.008445 0.707080
vn -0.707083 0.008445 0.707080
s 1
f 7/13/1 8/14/2 9/15/3 10/16/4
f 8/14/2 11/17/5 12/18/6 9/15/3
s 2
f 1/7/7 4/10/8 5/9/9 2/8/10
f 2/8/10 5/9/9 6/12/11 3/11/12
s 3
f 1/1/13 2/2/14 8/14/15 7/13/16
s 4
f 5/5/17 4/4/18 10/16/19 9/15/20
s off
f 4/4/21 1/1/22 7/13/23 10/16/24
s 3
f 2/2/14 3/3/25 11/17/26 8/14/15
s off
f 3/3/27 6/6/28 12/18/29 11/17/30
s 4
f 6/6/31 5/5/17 9/15/20 12/18/32
s 5
f 19/19/33 20/20/34 21/21/35 22/22/36
f 20/20/34 23/23/37 24/24/38 21/21/35
s 6
f 13/25/39 16/26/40 17/27/41 14/28/42
f 14/28/42 17/27/41 18/29/43 15/30/44
s 7
f 13/31/45 14/32/46 20/20/47 19/19/48
s 8
f 17/33/49 16/34/50 22/22/51 21/21/52
s off
f 16/34/53 13/31/54 19/19/55 22/22/56
s 7
f 14/32/46 15/35/57 23/23/58 20/20/47
s off
f 15/35/59 18/36/60 24/24/61 23/23/62
s 8
f 18/36/63 17/33/49 21/21/52 24/24/64
s 9
f 31/37/65 32/38/66 33/39/67 34/40/68
f 32/38/66 35/41/69 36/42/70 33/39/67
s 10
f 25/43/71 28/44/72 29/45/73 26/46/74
f 26/46/74 29/45/73 30/47/75 27/48/76
s 11
f 25/49/77 26/50/78 32/38/79 31/37/80
s 12
f 29/51/81 28/52/82 34/40/83 33/39/84
s off
f 28/52/85 25/49/86 31/37/87 34/40/88
s 11
f 26/50/78 27/53/89 35/41/90 32/38/79
s off
f 27/53/91 30/54/92 36/42/93 35/41/94
s 12
f 30/54/95 29/51/81 33/39/84 36/42/96
s 13
f 43/55/97 44/56/98 45/57/99 46/58/100
f 44/56/98 47/59/101 48/60/102 45/57/99
s 14
f 37/61/103 40/62/104 41/63/105 38/64/106
f 38/64/106 41/63/105 42/65/107 39/66/108
s 15
f 37/67/109 38/68/110 44/56/111 43/55/112
s 16
f 41/69/113 40/70/114 46/58/115 45/57/116
s off
f 40/70/117 37/67/118 43/55/119 46/58/120
s 15
f 38/68/110 39/71/121 47/59/122 44/56/111
s off
f 39/71/123 42/72/124 48/60/125 47/59/126
s 16
f 42/72/127 41/69/113 45/57/116 48/60/128
s 17
f 55/73/129 56/74/130 57/75/131 58/76/132
f 56/74/130 59/77/133 60/78/134 57/75/131
s 18
f 49/79/135 52/80/136 53/81/137 50/82/138
f 50/82/138 53/81/137 54/83/139 51/84/140
s 19
f 49/85/141 50/86/142 56/74/143 55/73/144
s 20
f 53/87/145 52/88/146 58/76/147 57/75/148
s off
f 52/88/149 49/85/150 55/73/151 58/76/152
s 19
f 50/86/142 51/89/153 59/77/154 56/74/143
s off
f 51/89/155 54/90/156 60/78/157 59/77/158
s 20
f 54/90/159 53/87/145 57/75/148 60/78/160
s 21
f 67/91/161 68/92/162 69/93/163 70/94/164
f 68/92/162 71/95/165 72/96/166 69/93/163
s 22
f 61/97/167 64/98/168 65/99/169 62/100/170
f 62/100/170 65/99/169 66/101/171 63/102/172
s 23
f 61/103/173 62/104/174 68/92/175 67/91/176
s 24
f 65/105/177 64/106/178 70/94/179 69/93/180
s off
f 64/106/181 61/103/182 67/91/183 70/94/184
s 23
f 62/104/174 63/107/185 71/95/186 68/92/175
s off
f 63/107/187 66/108/188 72/96/189 71/95/190
s 24
f 66/108/191 65/105/177 69/93/180 72/96/192
s 25
f 96/109/193 74/110/194 78/111/195 95/112/196
s 26
f 84/133/197 91/131/198 92/115/199 88/132/200
s 27
f 94/116/201 77/117/202 87/118/203 93/119/204
s 28
f 90/120/205 83/121/206 73/122/207 89/123/208
s 29
f 73/122/209 74/110/210 96/109/211 89/123/212
s 30
f 78/111/213 77/117/214 94/116/215 95/112/216
s 31
f 90/120/217 91/114/218 84/113/219 83/121/220
s 32
f 92/115/221 93/119/222 87/118/223 88/132/224
s 28
f 81/130/225 90/120/205 89/123/208 75/124/226
s 31
f 81/130/227 82/129/228 91/114/218 90/120/217
s 26
f 92/115/199 91/131/198 82/134/229 85/135/230
s 32
f 85/135/231 86/128/232 93/119/222 92/115/221
s 27
f 79/127/233 94/116/201 93/119/204 86/128/234
s 30
f 95/112/216 94/116/215 79/127/235 80/126/236
s 25
f 76/125/237 96/109/193 95/112/196 80/126/238
s 29
f 89/123/212 96/109/211 76/125/239 75/124/240
