# This file uses centimeters as units for non-parametric coordinates.

v -0.145744 0.448526 0.500305
v 0.228158 0.638631 0.326310
v 0.602059 0.603287 0.071035
v -0.602059 0.702145 -0.203176
v -0.228158 0.892250 -0.377171
v 0.145743 0.856906 -0.632446
v -0.149364 0.462362 0.507642
v 0.228157 0.654307 0.331962
v -0.228158 0.907926 -0.371520
v -0.605679 0.715980 -0.195839
v 0.605679 0.618621 0.074215
v 0.149364 0.872239 -0.629266
v 0.185525 1.293291 0.266167
v -0.037178 1.192274 -0.116476
v -0.028371 1.098293 -0.560668
v 0.259880 0.439625 0.448258
v 0.037177 0.338608 0.065615
v 0.045984 0.244627 -0.378577
v 0.171584 1.293780 0.274151
v -0.053275 1.191785 -0.112197
v 0.021080 0.338119 0.069895
v 0.245939 0.440114 0.456243
v -0.044383 1.096893 -0.560690
v 0.029971 0.243227 -0.378598
v 0.105379 0.602743 0.574985
v 0.174269 0.971744 0.319428
v 0.442722 1.209992 0.041243
v -0.243158 0.190138 -0.114732
v -0.174269 0.559138 -0.370289
v 0.094185 0.797387 -0.648474
v 0.090836 0.608262 0.579033
v 0.160393 0.980835 0.321001
v -0.188145 0.568230 -0.368716
v -0.257701 0.195656 -0.110685
v 0.431445 1.221391 0.040123
v 0.082908 0.808785 -0.649594
v 0.327846 0.831808 0.505078
v 0.367515 0.954640 0.069699
v 0.525794 0.870029 -0.347440
v -0.407184 0.394814 0.314819
v -0.367515 0.517647 -0.120560
v -0.209237 0.433035 -0.537700
v 0.319215 0.845042 0.508026
v 0.359268 0.969064 0.068431
v -0.375762 0.532071 -0.121829
v -0.415816 0.408049 0.317766
v 0.519079 0.883634 -0.352747
v -0.215951 0.446640 -0.543007
v -0.438016 0.824839 0.419934
v -0.000000 0.932017 0.366349
v 0.438016 0.824839 0.419934
v -0.438016 0.433092 -0.363626
v -0.000000 0.540270 -0.417211
v 0.438016 0.433092 -0.363626
v -0.442257 0.838706 0.413001
v -0.000000 0.946922 0.358898
v -0.000000 0.555175 -0.424662
v -0.442257 0.446959 -0.370559
v 0.442257 0.838706 0.413001
v 0.442257 0.446959 -0.370559
v -0.341308 0.610300 0.490075
v 0.030781 0.438530 0.294470
v 0.219541 0.145351 0.003554
v -0.402870 1.205527 -0.149726
v -0.030781 1.033757 -0.345331
v 0.157979 0.740578 -0.636247
v -0.332164 0.620405 0.498597
v 0.043528 0.446972 0.301097
v -0.018034 1.042199 -0.338704
v -0.393726 1.215632 -0.141205
v 0.234116 0.150954 0.007364
v 0.172554 0.746181 -0.632437
v -0.045257 0.000000 -0.007325
v -0.018106 0.000000 0.019826
v -0.031127 0.678150 -0.012978
v -0.012453 0.678150 0.005696
v 0.045257 0.000000 -0.007325
v 0.018105 0.000000 0.019826
v 0.031127 0.678150 -0.012978
v 0.012453 0.678150 0.005696
v -0.031127 0.678150 -0.037883
v -0.012453 0.678150 -0.056557
v -0.045257 0.000000 -0.043536
v -0.018106 0.000000 -0.070688
v 0.012453 0.678150 -0.056557
v 0.031127 0.678150 -0.037883
v 0.045257 0.000000 -0.043536
v 0.018105 0.000000 -0.070688
v -0.029961 0.241942 -0.006603
v -0.029961 0.241942 -0.041004
v -0.004167 0.241942 -0.066799
v 0.030234 0.241942 -0.066799
v 0.056029 0.241942 -0.041004
v 0.056029 0.241942 -0.006603
v 0.030234 0.241942 0.019192
v -0.004167 0.241942 0.019192
vt 0.000000 0.000000
vt 0.500000 0.000000
vt 1.000000 0.000000
vt 0.000000 1.000000
vt 0.500000 1.000000
vt 1.000000 1.000000
vt 0.000000 0.000000
vt 0.500000 0.000000
vt 0.500000 1.000000
vt 0.000000 1.000000
vt 1.000000 0.000000
vt 1.000000 1.000000
vt 0.000000 0.000000
vt 0.500000 0.000000
vt 0.500000 1.000000
vt 0.000000 1.000000
vt 1.000000 0.000000
vt 1.000000 1.000000
vt 0.000000 0.000000
vt 0.500000 0.000000
vt 0.500000 1.000000
vt 0.000000 1.000000
vt 1.000000 0.000000
vt 1.000000 1.000000
vt 0.000000 0.000000
vt 0.000000 1.000000
vt 0.500000 1.000000
vt 0.500000 0.000000
vt 1.000000 1.000000
vt 1.000000 0.000000
vt 0.000000 0.000000
vt 0.500000 0.000000
vt 0.500000 1.000000
vt 0.000000 1.000000
vt 1.000000 0.000000
vt 1.000000 1.000000
vt 0.000000 0.000000
vt 0.500000 0.000000
vt 0.500000 1.000000
vt 0.000000 1.000000
vt 1.000000 0.000000
vt 1.000000 1.000000
vt 0.000000 0.000000
vt 0.000000 1.000000
vt 0.500000 1.000000
vt 0.500000 0.000000
vt 1.000000 1.000000
vt 1.000000 0.000000
vt 0.000000 0.000000
vt 0.500000 0.000000
vt 0.500000 1.000000
vt 0.000000 1.000000
vt 1.000000 0.000000
vt 1.000000 1.000000
vt 0.000000 0.000000
vt 0.500000 0.000000
vt 0.500000 1.000000
vt 0.000000 1.000000
vt 1.000000 0.000000
vt 1.000000 1.000000
vt 0.000000 0.000000
vt 0.000000 1.000000
vt 0.500000 1.000000
vt 0.500000 0.000000
vt 1.000000 1.000000
vt 1.000000 0.000000
vt 0.000000 0.000000
vt 0.500000 0.000000
vt 0.500000 1.000000
vt 0.000000 1.000000
vt 1.000000 0.000000
vt 1.000000 1.000000
vt 0.000000 0.000000
vt 0.500000 0.000000
vt 0.500000 1.000000
vt 0.000000 1.000000
vt 1.000000 0.000000
vt 1.000000 1.000000
vt 0.000000 0.000000
vt 0.000000 1.000000
vt 0.500000 1.000000
vt 0.500000 0.000000
vt 1.000000 1.000000
vt 1.000000 0.000000
vt 0.000000 0.000000
vt 0.500000 0.000000
vt 0.500000 1.000000
vt 0.000000 1.000000
vt 1.000000 0.000000
vt 1.000000 1.000000
vt 0.000000 0.000000
vt 0.500000 0.000000
vt 0.500000 1.000000
vt 0.000000 1.000000
vt 1.000000 0.000000
vt 1.000000 1.000000
vt 0.000000 0.000000
vt 0.000000 1.000000
vt 0.500000 1.000000
vt 0.500000 0.000000
vt 1.000000 1.000000
vt 1.000000 0.000000
vt 0.000000 0.000000
vt 0.500000 0.000000
vt 0.500000 1.000000
vt 0.000000 1.000000
vt 1.000000 0.000000
vt 1.000000 1.000000
vt 0.449993 0.089192
vt 0.449993 0.000000
vt 0.550007 0.000000
vt 0.550007 0.089192
vt 0.449993 0.750000
vt 0.449992 0.660808
vt 0.550007 0.660808
vt 0.550007 0.750000
vt 0.699993 0.089192
vt 0.699993 0.000000
vt 0.800007 0.000000
vt 0.800007 0.089192
vt 0.199993 0.089192
vt 0.199993 0.000000
vt 0.300007 0.000000
vt 0.300007 0.089192
vt 0.375000 0.324993
vt 0.449993 0.250000
vt 0.550007 0.250000
vt 0.625000 0.324993
vt 0.625000 0.425007
vt 0.550007 0.500000
vt 0.449993 0.500000
vt 0.375000 0.425007
vt 0.375000 0.682291
vt 0.375000 0.824993
vt 0.625000 0.682291
vt 0.625000 0.824993
vt 0.199993 0.250000
vt 0.300007 0.250000
vt 0.699992 0.250000
vt 0.800007 0.250000
vn -0.225247 0.860774 0.456434
vn -0.000000 0.940731 0.339152
vn -0.000000 0.940731 0.339152
vn -0.225247 0.860774 0.456434
vn 0.225247 0.954006 0.197831
vn 0.225247 0.954006 0.197831
vn 0.225247 -0.860774 -0.456434
vn 0.225247 -0.860774 -0.456434
vn 0.000000 -0.940731 -0.339153
vn 0.000000 -0.940731 -0.339153
vn -0.225247 -0.954006 -0.197831
vn -0.225247 -0.954006 -0.197831
vn 0.520890 -0.289510 0.803030
vn 0.520889 -0.289510 0.803030
vn 0.520890 -0.289510 0.803030
vn 0.520890 -0.289510 0.803030
vn -0.520890 0.289510 -0.803030
vn -0.520889 0.289509 -0.803031
vn -0.520889 0.289509 -0.803031
vn -0.520890 0.289510 -0.803030
vn -0.823370 -0.418633 0.383156
vn -0.823370 -0.418633 0.383156
vn -0.823370 -0.418633 0.383156
vn -0.823370 -0.418633 0.383156
vn 0.520889 -0.289511 0.803030
vn 0.520889 -0.289511 0.803030
vn 0.823369 -0.077833 -0.562144
vn 0.823369 -0.077833 -0.562144
vn 0.823369 -0.077833 -0.562144
vn 0.823369 -0.077833 -0.562144
vn -0.520891 0.289511 -0.803029
vn -0.520891 0.289511 -0.803029
vn -0.867346 0.030418 0.496775
vn -0.966012 -0.029358 0.256824
vn -0.966012 -0.029358 0.256824
vn -0.867346 0.030418 0.496775
vn -0.996203 -0.087054 -0.001331
vn -0.996203 -0.087054 -0.001331
vn 0.867346 -0.030418 -0.496775
vn 0.867346 -0.030418 -0.496775
vn 0.966012 0.029358 -0.256824
vn 0.966012 0.029358 -0.256824
vn 0.996203 0.087054 0.001331
vn 0.996203 0.087054 0.001331
vn -0.084875 0.974469 -0.207859
vn -0.084877 0.974469 -0.207859
vn -0.084877 0.974469 -0.207859
vn -0.084875 0.974469 -0.207859
vn 0.084878 -0.974469 0.207859
vn 0.084879 -0.974469 0.207858
vn 0.084879 -0.974469 0.207858
vn 0.084878 -0.974469 0.207859
vn 0.490415 0.222450 0.842620
vn 0.490415 0.222451 0.842620
vn 0.490415 0.222450 0.842620
vn 0.490415 0.222450 0.842620
vn -0.084878 0.974469 -0.207859
vn -0.084878 0.974469 -0.207859
vn 0.019392 -0.206957 -0.978158
vn 0.019392 -0.206957 -0.978158
vn 0.019392 -0.206957 -0.978158
vn 0.019392 -0.206957 -0.978158
vn 0.084878 -0.974469 0.207859
vn 0.084878 -0.974469 0.207859
vn -0.904817 0.343338 0.251841
vn -0.832719 0.545586 0.094418
vn -0.832719 0.545586 0.094418
vn -0.904818 0.343338 0.251842
vn -0.701594 0.709160 -0.069698
vn -0.701594 0.709160 -0.069698
vn 0.904818 -0.343338 -0.251842
vn 0.904818 -0.343338 -0.251842
vn 0.832719 -0.545586 -0.094418
vn 0.832719 -0.545586 -0.094418
vn 0.701594 -0.709160 0.069698
vn 0.701594 -0.709160 0.069698
vn 0.397861 0.470993 0.787320
vn 0.397862 0.470992 0.787320
vn 0.397862 0.470992 0.787320
vn 0.397861 0.470993 0.787320
vn -0.397859 -0.470995 -0.787320
vn -0.397859 -0.470993 -0.787320
vn -0.397859 -0.470993 -0.787320
vn -0.397859 -0.470995 -0.787320
vn -0.151699 -0.812579 0.562763
vn -0.151699 -0.812579 0.562763
vn -0.151699 -0.812579 0.562763
vn -0.151699 -0.812579 0.562763
vn 0.397862 0.470991 0.787320
vn 0.397862 0.470991 0.787320
vn 0.591163 0.524649 -0.612592
vn 0.591163 0.524649 -0.612592
vn 0.591163 0.524649 -0.612592
vn 0.591163 0.524649 -0.612592
vn -0.397860 -0.470996 -0.787319
vn -0.397860 -0.470996 -0.787319
vn -0.537003 0.823408 0.183378
vn -0.494920 0.865599 -0.076108
vn -0.494920 0.865599 -0.076108
vn -0.537003 0.823408 0.183378
vn -0.417754 0.846433 -0.330200
vn -0.417754 0.846433 -0.330200
vn 0.537003 -0.823408 -0.183378
vn 0.537003 -0.823408 -0.183378
vn 0.494920 -0.865599 0.076108
vn 0.494920 -0.865599 0.076108
vn 0.417754 -0.846433 0.330200
vn 0.417754 -0.846433 0.330200
vn 0.839047 0.498831 0.217184
vn 0.839045 0.498834 0.217184
vn 0.839045 0.498834 0.217184
vn 0.839046 0.498831 0.217184
vn -0.839045 -0.498833 -0.217183
vn -0.839045 -0.498834 -0.217184
vn -0.839045 -0.498834 -0.217184
vn -0.839045 -0.498833 -0.217183
vn -0.087356 -0.270492 0.958751
vn -0.087356 -0.270492 0.958751
vn -0.087356 -0.270492 0.958751
vn -0.087356 -0.270492 0.958751
vn 0.839043 0.498837 0.217183
vn 0.839043 0.498837 0.217183
vn 0.348545 -0.186322 -0.918586
vn 0.348545 -0.186322 -0.918586
vn 0.348545 -0.186322 -0.918586
vn 0.348545 -0.186322 -0.918586
vn -0.839046 -0.498832 -0.217183
vn -0.839046 -0.498832 -0.217183
vn -0.263872 0.862741 -0.431334
vn 0.000000 0.894442 -0.447183
vn -0.000000 0.894442 -0.447183
vn -0.263872 0.862741 -0.431334
vn 0.263872 0.862741 -0.431334
vn 0.263872 0.862741 -0.431334
vn 0.263872 -0.862741 0.431334
vn 0.263872 -0.862741 0.431334
vn 0.000000 -0.894442 0.447183
vn 0.000000 -0.894442 0.447183
vn -0.263872 -0.862741 0.431334
vn -0.263872 -0.862741 0.431334
vn -0.000000 0.447184 0.894442
vn 0.000000 0.447184 0.894442
vn 0.000000 0.447184 0.894442
vn -0.000000 0.447184 0.894442
vn 0.000000 -0.447183 -0.894443
vn 0.000000 -0.447183 -0.894443
vn 0.000000 -0.447183 -0.894442
vn 0.000000 -0.447183 -0.894443
vn -0.964558 -0.236017 0.117999
vn -0.964558 -0.236017 0.117999
vn -0.964558 -0.236017 0.117999
vn -0.964558 -0.236017 0.117999
vn 0.000001 0.447185 0.894442
vn 0.000001 0.447185 0.894442
vn 0.964558 -0.236018 0.117999
vn 0.964558 -0.236018 0.117999
vn 0.964558 -0.236018 0.117999
vn 0.964558 -0.236018 0.117999
vn -0.000000 -0.447183 -0.894443
vn -0.000000 -0.447183 -0.894443
vn 0.568927 0.628696 0.530154
vn 0.764975 0.506603 0.397703
vn 0.764975 0.506603 0.397703
vn 0.568927 0.628696 0.530154
vn 0.906797 0.348599 0.237061
vn 0.906797 0.348599 0.237061
vn -0.568927 -0.628696 -0.530154
vn -0.568927 -0.628696 -0.530154
vn -0.764975 -0.506603 -0.397703
vn -0.764975 -0.506603 -0.397703
vn -0.906797 -0.348599 -0.237061
vn -0.906797 -0.348599 -0.237061
vn 0.070273 -0.679460 0.730339
vn 0.070274 -0.679459 0.730340
vn 0.070274 -0.679459 0.730340
vn 0.070273 -0.679460 0.730339
vn -0.070273 0.679458 -0.730341
vn -0.070273 0.679458 -0.730342
vn -0.070273 0.679458 -0.730342
vn -0.070273 0.679458 -0.730341
vn -0.819378 0.378258 0.430744
vn -0.819378 0.378258 0.430744
vn -0.819378 0.378258 0.430744
vn -0.819378 0.378258 0.430744
vn 0.070275 -0.679458 0.730341
vn 0.070275 -0.679458 0.730341
vn 0.415670 -0.645612 -0.640628
vn 0.415670 -0.645612 -0.640628
vn 0.415670 -0.645612 -0.640628
vn 0.415670 -0.645612 -0.640628
vn -0.070273 0.679458 -0.730341
vn -0.070273 0.679458 -0.730341
vn 0.000000 0.019510 0.999810
vn 0.000000 0.002623 0.999997
vn 0.000000 0.002623 0.999997
vn 0.000000 0.019714 0.999806
vn 0.000000 0.016071 -0.999871
vn 0.000000 0.020486 -0.999790
vn 0.000000 0.020540 -0.999789
vn 0.000000 0.016071 -0.999871
vn 0.999864 0.016491 -0.000000
vn 0.999010 -0.044480 -0.000000
vn 0.999010 -0.044480 -0.000000
vn 0.999866 0.016399 -0.000000
vn -0.999719 0.023706 0.000000
vn -0.998008 0.063094 0.000000
vn -0.998008 0.063094 0.000000
vn -0.999720 0.023646 0.000000
vn 0.000000 1.000000 -0.000000
vn 0.000000 1.000000 -0.000000
vn 0.000000 1.000000 -0.000000
vn 0.000000 1.000000 -0.000000
vn 0.000000 1.000000 -0.000000
vn 0.000000 1.000000 -0.000000
vn 0.000000 1.000000 -0.000000
vn 0.000000 1.000000 -0.000000
vn -0.706466 0.042554 0.706466
vn -0.706466 0.042554 0.706466
vn -0.706936 0.022002 0.706936
vn -0.706933 0.022198 0.706933
vn 0.706708 -0.033575 0.706708
vn 0.706708 -0.033575 0.706708
vn 0.707003 0.017164 0.707003
vn 0.707007 0.016787 0.707007
vn -0.706922 0.022850 -0.706922
vn -0.706926 0.022632 -0.706926
vn -0.706149 0.052033 -0.706149
vn -0.706149 0.052033 -0.706149
vn 0.707000 0.017418 -0.706999
vn 0.706995 0.017817 -0.706995
vn 0.706902 -0.024076 -0.706902
vn 0.706902 -0.024076 -0.706902
vn -0.999997 -0.002672 0.000000
vn -0.999997 -0.002672 0.000000
vn -0.707103 0.003170 -0.707103
vn -0.707103 0.003170 -0.707103
vn 0.000000 0.023472 -0.999725
vn 0.000000 0.023472 -0.999725
vn 0.706378 0.045380 -0.706378
vn 0.706378 0.045380 -0.706378
vn 0.998375 0.056995 -0.000000
vn 0.998375 0.056995 -0.000000
vn 0.706200 0.050637 0.706200
vn 0.706200 0.050637 0.706200
vn 0.000000 0.030924 0.999522
vn 0.000000 0.030924 0.999522
vn -0.707082 0.008445 0.707082
vn -0.707082 0.008445 0.707082
s 1
f 7/13/1 8/14/2 9/15/3 10/16/4
f 8/14/2 11/17/5 12/18/6 9/15/3
s 2
f 1/7/7 4/10/8 5/9/9 2/8/10
f 2/8/10 5/9/9 6/12/11 3/11/12
s 3
f 1/1/13 2/2/14 8/14/15 7/13/16
s 4
f 5/5/17 4/4/18 10/16/19 9/15/20
s off
f 4/4/21 1/1/22 7/13/23 10/16/24
s 3
f 2/2/14 3/3/25 11/17/26 8/14/15
s off
f 3/3/27 6/6/28 12/18/29 11/17/30
s 4
f 6/6/31 5/5/17 9/15/20 12/18/32
s 5
f 19/19/33 20/20/34 21/21/35 22/22/36
f 20/20/34 23/23/37 24/24/38 21/21/35
s 6
f 13/25/39 16/26/40 17/27/41 14/28/42
f 14/28/42 17/27/41 18/29/43 15/30/44
s 7
f 13/31/45 14/32/46 20/20/47 19/19/48
s 8
f 17/33/49 16/34/50 22/22/51 21/21/52
s off
f 16/34/53 13/31/54 19/19/55 22/22/56
s 7
f 14/32/46 15/35/57 23/23/58 20/20/47
s off
f 15/35/59 18/36/60 24/24/61 23/23/62
s 8
f 18/36/63 17/33/49 21/21/52 24/24/64
s 9
f 31/37/65 32/38/66 33/39/67 34/40/68
f 32/38/66 35/41/69 36/42/70 33/39/67
s 10
f 25/43/71 28/44/72 29/45/73 26/46/74
f 26/46/74 29/45/73 30/47/75 27/48/76
s 11
f 25/49/77 26/50/78 32/38/79 31/37/80
s 12
f 29/51/81 28/52/82 34/40/83 33/39/84
s off
f 28/52/85 25/49/86 31/37/87 34/40/88
s 11
f 26/50/78 27/53/89 35/41/90 32/38/79
s off
f 27/53/91 30/54/92 36/42/93 35/41/94
s 12
f 30/54/95 29/51/81 33/39/84 36/42/96
s 13
f 43/55/97 44/56/98 45/57/99 46/58/100
f 44/56/98 47/59/101 48/60/102 45/57/99
s 14
f 37/61/103 40/62/104 41/63/105 38/64/106
f 38/64/106 41/63/105 42/65/107 39/66/108
s 15
f 37/67/109 38/68/110 44/56/111 43/55/112
s 16
f 41/69/113 40/70/114 46/58/115 45/57/116
s off
f 40/70/117 37/67/118 43/55/119 46/58/120
s 15
f 38/68/110 39/71/121 47/59/122 44/56/111
s off
f 39/71/123 42/72/124 48/60/125 47/59/126
s 16
f 42/72/127 41/69/113 45/57/116 48/60/128
s 17
f 55/73/129 56/74/130 57/75/131 58/76/132
f 56/74/130 59/77/133 60/78/134 57/75/131
s 18
f 49/79/135 52/80/136 53/81/137 50/82/138
f 50/82/138 53/81/137 54/83/139 51/84/140
s 19
f 49/85/141 50/86/142 56/74/143 55/73/144
s 20
f 53/87/145 52/88/146 58/76/147 57/75/148
s off
f 52/88/149 49/85/150 55/73/151 58/76/152
s 19
f 50/86/142 51/89/153 59/77/154 56/74/143
s off
f 51/89/155 54/90/156 60/78/157 59/77/158
s 20
f 54/90/159 53/87/145 57/75/148 60/78/160
s 21
f 67/91/161 68/92/162 69/93/163 70/94/164
f 68/92/162 71/95/165 72/96/166 69/93/163
s 22
f 61/97/167 64/98/168 65/99/169 62/100/170
f 62/100/170 65/99/169 66/101/171 63/102/172
s 23
f 61/103/173 62/104/174 68/92/175 67/91/176
s 24
f 65/105/177 64/106/178 70/94/179 69/93/180
s off
f 64/106/181 61/103/182 67/91/183 70/94/184
s 23
f 62/104/174 63/107/185 71/95/186 68/92/175
s off
f 63/107/187 66/108/188 72/96/189 71/95/190
s 24
f 66/108/191 65/105/177 69/93/180 72/96/192
s 25
f 96/109/193 74/110/194 78/111/195 95/112/196
s 26
f 84/113/197 91/114/198 92/115/199 88/116/200
s 27
f 94/117/201 77/118/202 87/119/203 93/120/204
s 28
f 90/121/205 83/122/206 73/123/207 89/124/208
s off
f 75/125/209 76/126/210 80/127/211 79/128/212 86/129/213 85/130/214 82/131/215 81/132/216
s 29
f 73/123/217 74/110/218 96/109/219 89/124/220
s 30
f 78/111/221 77/118/222 94/117/223 95/112/224
s 31
f 90/133/225 91/114/226 84/113/227 83/134/228
s 32
f 92/115/229 93/135/230 87/136/231 88/116/232
s 28
f 81/137/233 90/121/205 89/124/208 75/138/234
s 31
f 81/132/235 82/131/236 91/114/226 90/133/225
s 26
f 92/115/199 91/114/198 82/131/237 85/130/238
s 32
f 85/130/239 86/129/240 93/135/230 92/115/229
s 27
f 79/139/241 94/117/201 93/120/204 86/140/242
s 30
f 95/112/224 94/117/223 79/139/243 80/127/244
s 25
f 76/126/245 96/109/193 95/112/196 80/127/246
s 29
f 89/124/220 96/109/219 76/126/247 75/138/248
