# This file uses centimeters as units for non-parametric coordinates.

mtllib Book Cover.mtl
g default
v 10.897440 0.038958 4.742716
v 4.164441 0.038958 4.742716
v 10.897440 0.135423 4.742716
v 4.164441 0.135423 4.742716
v 10.897440 0.135423 -4.742716
v 4.164441 0.135423 -4.742716
v 10.897440 0.038958 -4.742716
v 4.164441 0.038958 -4.742716
v 4.107490 0.012672 -4.742716
v 4.107490 0.012672 4.742716
v 4.107490 0.109138 -4.742716
v 4.107490 0.109138 4.742716
v 3.908163 -0.030042 -4.742716
v 3.908163 -0.030042 4.742716
v 3.908163 0.066423 -4.742716
v 3.908163 0.066423 4.742716
v 3.768250 -0.030330 -4.742716
v 3.768250 -0.030330 4.742716
v 3.768250 0.066372 -4.742716
v 3.768250 0.066372 4.742716
v -3.366666 0.038839 4.742716
v 3.366666 0.038839 4.742716
v -3.366666 0.135542 4.742716
v 3.366666 0.135542 4.742716
v -3.366666 0.135542 -4.742716
v 3.366666 0.135542 -4.742716
v -3.366666 0.038839 -4.742716
v 3.366666 0.038839 -4.742716
v 3.423620 0.012489 -4.742716
v 3.423620 0.012489 4.742716
v 3.423620 0.109192 -4.742716
v 3.423620 0.109192 4.742716
v 3.622957 -0.030330 -4.742716
v 3.622957 -0.030330 4.742716
v 3.622957 0.066372 -4.742716
v 3.622957 0.066372 4.742716
v 4.033064 0.187744 -4.742716
v 4.032133 0.139246 -4.742716
v 4.032133 0.139246 4.742716
v 4.033064 0.187744 4.742716
v 3.483811 0.187796 4.742716
v 3.483811 0.187796 -4.742716
v 3.484035 0.139273 4.742716
v 3.484035 0.139273 -4.742716
v 3.914828 0.203437 -4.742716
v 3.913896 0.154939 -4.742716
v 3.913896 0.154939 4.742716
v 3.914828 0.203437 4.742716
v 3.602068 0.201762 4.742716
v 3.602068 0.201762 -4.742716
v 3.602292 0.153239 4.742716
v 3.602292 0.153239 -4.742716
v 3.765138 0.206018 -4.742716
v 3.765362 0.157495 -4.742716
v 3.765362 0.157495 4.742716
v 3.765138 0.206018 4.742716
v -3.294260 0.135542 4.640715
v 3.294260 0.135542 4.640715
v 3.294260 0.135542 -4.640715
v -3.294260 0.135542 -4.640715
v 10.809401 0.135423 4.640714
v 10.809401 0.135423 -4.640714
v 4.221209 0.135423 -4.640714
v 4.221209 0.135423 4.640714
vt 0.873704 0.029610
vt 0.879365 0.029610
vt 0.879365 0.149322
vt 0.873704 0.149322
vt 0.919628 0.149322
vt 0.919628 0.029610
vt 0.925302 0.029610
vt 0.925302 0.149322
vt 0.072424 0.030721
vt 0.450404 0.030721
vt 0.450404 0.113868
vt 0.072424 0.113868
vt 0.068270 0.029610
vt 0.454558 0.029610
vt 0.454558 0.114585
vt 0.068270 0.114585
vt 0.454558 0.116243
vt 0.068270 0.116243
vt 0.454558 0.117735
vt 0.068270 0.117735
vt 0.454558 0.119624
vt 0.068270 0.119624
vt 0.454558 0.121682
vt 0.068270 0.121682
vt 0.454558 0.123175
vt 0.068270 0.123175
vt 0.454558 0.124653
vt 0.068270 0.124653
vt 0.450405 0.125567
vt 0.072424 0.125567
vt 0.454558 0.209632
vt 0.450405 0.208719
vt 0.483065 0.114073
vt 0.068270 0.209632
vt 0.024955 0.699136
vt 0.022823 0.232227
vt 0.354247 0.230714
vt 0.481585 0.114585
vt 0.867873 0.115304
vt 0.481585 0.115304
vt 0.867873 0.117819
vt 0.481585 0.117819
vt 0.867873 0.119585
vt 0.481585 0.119585
vt 0.867873 0.121419
vt 0.481585 0.121419
vt 0.867873 0.123935
vt 0.481585 0.123935
vt 0.867873 0.124653
vt 0.383506 0.960859
vt 0.905810 0.958087
vt 0.901905 0.222302
vt 0.913918 0.149322
vt 0.905801 0.149322
vt 0.905801 0.029610
vt 0.913918 0.029610
vt 0.900103 0.149322
vt 0.900103 0.029610
vt 0.894186 0.149322
vt 0.894186 0.029610
vt 0.886068 0.149322
vt 0.886068 0.029610
vt 0.951336 0.150443
vt 0.951336 0.270156
vt 0.948267 0.270156
vt 0.948267 0.150443
vt 0.943452 0.270156
vt 0.943452 0.150443
vt 0.937403 0.270156
vt 0.937403 0.150443
vt 0.930762 0.270156
vt 0.930762 0.150443
vt 0.925946 0.270156
vt 0.925946 0.150443
vt 0.923486 0.270156
vt 0.923486 0.150443
vt 0.052730 0.029610
vt 0.058390 0.029610
vt 0.058390 0.114585
vt 0.052730 0.114585
vt 0.056848 0.115304
vt 0.051187 0.115304
vt 0.061461 0.116243
vt 0.058615 0.116255
vt 0.054341 0.117819
vt 0.048681 0.117819
vt 0.062381 0.117735
vt 0.059535 0.117747
vt 0.054338 0.119585
vt 0.048664 0.119585
vt 0.062533 0.119624
vt 0.059685 0.119621
vt 0.054338 0.121419
vt 0.048664 0.121419
vt 0.062283 0.121682
vt 0.059436 0.121680
vt 0.056851 0.123935
vt 0.051176 0.123935
vt 0.061464 0.123175
vt 0.058616 0.123172
vt 0.058397 0.124653
vt 0.052723 0.124653
vt 0.052723 0.209632
vt 0.058397 0.209632
vt 0.464532 0.029610
vt 0.470192 0.029610
vt 0.470192 0.114585
vt 0.464532 0.114585
vt 0.471735 0.115304
vt 0.466074 0.115304
vt 0.474241 0.117819
vt 0.468580 0.117819
vt 0.464307 0.116255
vt 0.461461 0.116243
vt 0.474258 0.119585
vt 0.468584 0.119585
vt 0.463386 0.117747
vt 0.460540 0.117735
vt 0.474258 0.121419
vt 0.468584 0.121419
vt 0.463236 0.119621
vt 0.460389 0.119624
vt 0.471745 0.123935
vt 0.466071 0.123935
vt 0.463486 0.121680
vt 0.460639 0.121682
vt 0.470199 0.124653
vt 0.464525 0.124653
vt 0.464306 0.123172
vt 0.461458 0.123175
vt 0.464525 0.209632
vt 0.470199 0.209632
vt 0.481585 0.124653
vt 0.379600 0.225074
vt 0.356379 0.697623
vt 0.867873 0.114585
vt 0.072424 0.208719
vt 0.861046 0.114073
vt 0.861046 0.030922
vt 0.483065 0.030922
vn 0.000000 0.000000 1.000000
vn 0.000000 0.000000 1.000000
vn 0.000000 0.000000 1.000000
vn 0.000000 0.000000 1.000000
vn 0.000000 1.000000 0.000000
vn 0.000000 1.000000 0.000000
vn 0.000000 1.000000 0.000000
vn 0.000000 1.000000 0.000000
vn 0.000000 0.000000 -1.000000
vn 0.000000 0.000000 -1.000000
vn 0.000000 0.000000 -1.000000
vn 0.000000 0.000000 -1.000000
vn 0.000000 -1.000000 0.000000
vn 0.000000 -1.000000 0.000000
vn 0.000000 -1.000000 0.000000
vn 0.000000 -1.000000 0.000000
vn 1.000000 0.000000 0.000000
vn 1.000000 0.000000 0.000000
vn 1.000000 0.000000 0.000000
vn 1.000000 0.000000 0.000000
vn 0.419065 -0.907956 0.000000
vn 0.259981 -0.965614 0.000000
vn 0.259981 -0.965614 0.000000
vn 0.419065 -0.907956 0.000000
vn 0.000000 0.000000 -1.000000
vn 0.000001 0.000000 -1.000000
vn 0.000001 0.000000 1.000000
vn 0.000000 0.000000 1.000000
vn 0.125754 -0.992061 0.000000
vn 0.125754 -0.992061 0.000000
vn 0.000000 0.000000 -1.000000
vn 0.000000 0.000000 -1.000000
vn -0.209536 0.977801 0.000000
vn -0.125072 0.992148 0.000000
vn -0.125072 0.992148 0.000000
vn -0.209536 0.977801 0.000000
vn 0.000000 0.000000 1.000000
vn 0.000000 0.000000 1.000000
vn 0.001009 -1.000000 0.000000
vn 0.001009 -1.000000 0.000000
vn 0.000000 0.000000 -1.000000
vn 0.000000 0.000000 -1.000000
vn -0.000179 1.000000 0.000000
vn -0.000179 1.000000 0.000000
vn 0.000000 0.000000 1.000000
vn 0.000000 0.000000 1.000000
vn 0.000000 0.000000 1.000000
vn -0.000000 0.000000 1.000000
vn 0.000000 0.000000 1.000000
vn 0.000000 0.000000 1.000000
vn 0.000000 1.000000 0.000000
vn 0.000000 1.000000 0.000000
vn 0.000000 1.000000 0.000000
vn 0.000000 1.000000 0.000000
vn 0.000000 0.000000 -1.000000
vn -0.000000 0.000000 -1.000000
vn -0.000000 0.000000 -1.000000
vn 0.000000 0.000000 -1.000000
vn 0.000000 -1.000000 0.000000
vn 0.000000 -1.000000 0.000000
vn 0.000000 -1.000000 0.000000
vn 0.000000 -1.000000 0.000000
vn -1.000000 0.000000 0.000000
vn -1.000000 0.000000 0.000000
vn -1.000000 0.000000 0.000000
vn -1.000000 0.000000 0.000000
vn -0.419895 -0.907573 0.000000
vn -0.419895 -0.907573 0.000000
vn -0.260564 -0.965457 0.000000
vn -0.260564 -0.965457 0.000000
vn 0.000000 0.000000 -1.000000
vn 0.000001 0.000000 -1.000000
vn 0.000001 0.000000 1.000000
vn 0.000001 0.000000 1.000000
vn -0.123299 -0.992370 0.000000
vn -0.123299 -0.992370 0.000000
vn 0.000001 0.000000 -1.000000
vn 0.000001 0.000000 -1.000000
vn 0.210018 0.977698 0.000000
vn 0.210018 0.977698 0.000000
vn 0.123299 0.992370 0.000000
vn 0.123299 0.992370 0.000000
vn 0.000001 0.000000 1.000000
vn 0.000001 0.000000 1.000000
vn 0.000000 0.000000 -1.000000
vn 0.000000 0.000000 -1.000000
vn 0.000000 0.000000 1.000000
vn 0.000000 0.000000 1.000000
vn 0.000002 0.000000 -1.000000
vn 0.000001 0.000000 -1.000000
vn -0.371026 -0.928622 0.000000
vn -0.371026 -0.928622 0.000000
vn -0.230230 -0.973136 0.000000
vn -0.230230 -0.973136 0.000000
vn 0.000001 0.000000 1.000000
vn 0.000003 0.000000 1.000000
vn 0.369990 0.929036 0.000000
vn 0.369990 0.929036 0.000000
vn 0.262893 0.964825 0.000000
vn 0.262893 0.964825 0.000000
vn -0.407370 0.913263 0.000000
vn -0.407370 0.913263 0.000000
vn -0.270795 0.962637 0.000000
vn -0.270795 0.962637 0.000000
vn 0.000003 0.000000 1.000000
vn 0.000001 0.000000 1.000000
vn 0.445717 -0.895174 0.000000
vn 0.445717 -0.895174 0.000000
vn 0.239360 -0.970931 0.000000
vn 0.239360 -0.970931 0.000000
vn 0.000001 0.000000 -1.000000
vn 0.000001 0.000000 -1.000000
vn -0.000001 0.000000 -1.000000
vn -0.000001 0.000000 -1.000000
vn -0.068246 -0.997669 0.000000
vn -0.068246 -0.997669 0.000000
vn -0.000003 0.000000 1.000000
vn -0.000002 0.000000 1.000000
vn 0.068045 0.997682 0.000000
vn 0.068045 0.997682 0.000000
vn -0.064637 0.997909 0.000000
vn -0.064637 0.997909 0.000000
vn 0.000000 0.000000 1.000000
vn 0.000000 0.000000 1.000000
vn 0.064637 -0.997909 0.000000
vn 0.064637 -0.997909 0.000000
vn 0.000000 0.000000 -1.000000
vn 0.000000 0.000000 -1.000000
vn -0.000002 0.000000 -1.000000
vn -0.000002 0.000000 -1.000000
vn -0.017203 -0.999852 0.000000
vn -0.017203 -0.999852 0.000000
vn -0.000003 0.000000 1.000000
vn -0.000003 0.000000 1.000000
vn 0.017236 0.999851 0.000000
vn 0.017236 0.999851 0.000000
vn -0.026090 0.999660 0.000000
vn -0.026090 0.999660 0.000000
vn 0.000000 0.000000 1.000000
vn 0.000000 0.000000 1.000000
vn 0.026090 -0.999660 0.000000
vn 0.026090 -0.999660 0.000000
vn 0.000000 0.000000 -1.000000
vn 0.000000 0.000000 -1.000000
vn 0.000000 1.000000 0.000000
vn 0.000000 1.000000 0.000000
vn 0.000000 1.000000 0.000000
vn 0.000000 1.000000 0.000000
vn 0.000000 1.000000 0.000000
vn 0.000000 1.000000 0.000000
vn 0.000000 1.000000 0.000000
vn 0.000000 1.000000 0.000000
vn 0.000000 1.000000 -0.000000
vn 0.000000 1.000000 -0.000000
vn 0.000000 1.000000 -0.000000
vn 0.000000 1.000000 -0.000000
vn 0.000000 1.000000 0.000000
vn 0.000000 1.000000 0.000000
vn 0.000000 1.000000 0.000000
vn 0.000000 1.000000 0.000000
vn 0.000000 1.000000 0.000000
vn 0.000000 1.000000 0.000000
vn 0.000000 1.000000 0.000000
vn 0.000000 1.000000 0.000000
vn 0.000000 1.000000 -0.000000
vn 0.000000 1.000000 -0.000000
vn 0.000000 1.000000 -0.000000
vn 0.000000 1.000000 -0.000000
vn 0.000000 1.000000 0.000000
vn 0.000000 1.000000 0.000000
vn 0.000000 1.000000 0.000000
vn 0.000000 1.000000 0.000000
vn 0.000000 1.000000 -0.000000
vn 0.000000 1.000000 -0.000000
vn 0.000000 1.000000 -0.000000
vn 0.000000 1.000000 -0.000000
s 1
g pCube3
usemtl lambert2SG
f 1/77/1 3/78/2 4/79/3 2/80/4
s off
f 61/9/5 62/10/6 63/11/7 64/12/8
s 2
f 5/105/9 7/106/10 8/107/11 6/108/12
s off
f 7/35/13 1/36/14 2/37/15 8/135/16
f 7/1/17 5/2/18 3/3/19 1/4/20
s 3
f 2/136/21 10/39/22 9/40/23 8/38/24
s 2
f 8/107/11 9/109/25 11/110/26 6/108/12
s 1
f 4/79/3 12/81/27 10/82/28 2/80/4
s 3
f 10/39/22 14/41/29 13/42/30 9/40/23
s 2
f 9/109/25 13/111/31 15/112/32 11/110/26
s 4
f 11/53/33 15/54/34 16/55/35 12/56/36
s 1
f 12/81/27 16/85/37 14/86/38 10/82/28
s 3
f 14/41/29 18/43/39 17/44/40 13/42/30
s 2
f 13/111/31 17/115/41 19/116/42 15/112/32
s 4
f 15/54/34 19/57/43 20/58/44 16/55/35
s 1
f 16/85/37 20/89/45 18/90/46 14/86/38
s 5
f 21/103/47 22/102/48 24/101/49 23/104/50
s off
f 57/33/51 58/140/52 59/139/53 60/138/54
s 6
f 25/131/55 26/128/56 28/127/57 27/132/58
s off
f 27/51/59 28/50/60 22/134/61 21/52/62
f 27/5/63 21/6/64 23/7/65 25/8/66
s 3
f 22/49/67 28/133/68 29/48/69 30/47/70
s 6
f 28/127/57 26/128/56 31/124/71 29/123/72
s 5
f 24/101/49 22/102/48 30/98/73 32/97/74
s 3
f 30/47/70 29/48/69 33/46/75 34/45/76
s 6
f 29/123/72 31/124/71 35/120/77 33/119/78
s 4
f 31/61/79 32/62/80 36/60/81 35/59/82
s 5
f 32/97/74 30/98/73 34/94/83 36/93/84
s 3
f 34/45/76 33/46/75 17/44/40 18/43/39
s 6
f 33/119/78 35/120/77 19/116/85 17/115/86
s 4
f 35/59/82 36/60/81 20/58/44 19/57/43
s 5
f 36/93/84 34/94/83 18/90/87 20/89/88
s 2
f 6/108/12 11/110/26 38/113/89 37/114/90
s 8
f 11/63/91 12/64/92 39/65/93 38/66/94
s 1
f 12/81/27 4/79/3 40/83/95 39/84/96
s 9
f 4/16/97 6/15/98 37/17/99 40/18/100
s 10
f 26/27/101 24/28/102 41/26/103 42/25/104
s 5
f 24/101/49 32/97/74 43/100/105 41/99/106
s 11
f 32/75/107 31/76/108 44/74/109 43/73/110
s 6
f 31/124/71 26/128/56 42/130/111 44/129/112
s 2
f 37/114/90 38/113/89 46/117/113 45/118/114
s 8
f 38/66/94 39/65/93 47/67/115 46/68/116
s 1
f 39/84/96 40/83/95 48/87/117 47/88/118
s 9
f 40/18/100 37/17/99 45/19/119 48/20/120
s 10
f 42/25/104 41/26/103 49/24/121 50/23/122
s 5
f 41/99/106 43/100/105 51/96/123 49/95/124
s 11
f 43/73/110 44/74/109 52/72/125 51/71/126
s 6
f 44/129/112 42/130/111 50/126/127 52/125/128
s 2
f 45/118/114 46/117/113 54/121/129 53/122/130
s 8
f 46/68/116 47/67/115 55/69/131 54/70/132
s 1
f 47/88/118 48/87/117 56/91/133 55/92/134
s 9
f 48/20/120 45/19/119 53/21/135 56/22/136
s 10
f 50/23/122 49/24/121 56/22/137 53/21/138
s 5
f 49/95/124 51/96/123 55/92/139 56/91/140
s 11
f 51/71/126 52/72/125 54/70/141 55/69/142
s 6
f 52/125/128 50/126/127 53/122/143 54/121/144
s off
f 23/34/145 24/28/146 58/30/147 57/137/148
f 24/28/149 26/27/150 59/29/151 58/30/152
f 26/27/153 25/31/154 60/32/155 59/29/156
f 25/31/157 23/34/158 57/137/159 60/32/160
f 3/13/161 5/14/162 62/10/163 61/9/164
f 5/14/165 6/15/166 63/11/167 62/10/168
f 6/15/169 4/16/170 64/12/171 63/11/172
f 4/16/173 3/13/174 61/9/175 64/12/176
